<?xml version="1.0" standalone="no"?>
<!DOCTYPE svg PUBLIC "-//W3C//DTD SVG 20010904//EN"
 "http://www.w3.org/TR/2001/REC-SVG-20010904/DTD/svg10.dtd">
<svg version="1.0" xmlns="http://www.w3.org/2000/svg"
 width="202.000000pt" height="202.000000pt" viewBox="0 0 202.000000 202.000000"
 preserveAspectRatio="xMidYMid meet">
<metadata>
Created by potrace 1.11, written by Peter Selinger 2001-2013
</metadata>
<g transform="translate(0.000000,202.000000) scale(0.100000,-0.100000)"
fill="#000000" stroke="none">
<path d="M951 1824 c-62 -70 -86 -141 -86 -249 0 -82 3 -97 32 -155 40 -82 96
-139 120 -124 30 19 91 117 108 175 26 84 17 196 -21 273 -27 55 -86 126 -104
126 -5 0 -27 -21 -49 -46z"/>
<path d="M358 1578 c-9 -90 46 -212 129 -288 62 -57 138 -88 231 -97 l65 -6
-6 69 c-10 124 -72 226 -175 293 -52 33 -145 61 -203 61 -35 0 -38 -2 -41 -32z"/>
<path d="M1480 1592 c-70 -26 -101 -46 -148 -93 -62 -63 -102 -150 -109 -238
l-6 -71 45 0 c96 0 215 54 279 128 52 59 89 149 92 223 l2 64 -55 2 c-32 1
-74 -5 -100 -15z"/>
<path d="M335 1108 c-33 -4 -83 -19 -112 -34 -62 -30 -127 -87 -121 -106 3 -7
28 -32 56 -55 57 -46 156 -83 226 -83 54 0 144 24 193 51 46 25 103 78 103 95
0 18 -67 71 -127 100 -63 31 -138 42 -218 32z"/>
<path d="M1517 1100 c-82 -21 -197 -100 -197 -135 0 -7 18 -27 39 -44 155
-123 365 -115 510 19 l34 31 -34 35 c-56 58 -144 95 -235 100 -44 2 -96 -1
-117 -6z"/>
<path d="M633 735 c-153 -47 -261 -186 -269 -344 l-3 -64 70 6 c159 13 286
118 333 276 9 30 16 74 16 98 l0 43 -52 -1 c-29 0 -72 -6 -95 -14z"/>
<path d="M1223 681 c7 -85 38 -156 95 -222 41 -46 133 -102 187 -113 73 -15
106 -16 123 -7 17 9 18 17 10 73 -25 184 -170 323 -349 336 l-72 5 6 -72z"/>
<path d="M956 618 c-107 -124 -128 -286 -57 -426 27 -53 84 -122 100 -122 4 0
19 12 33 27 110 119 137 289 68 428 -29 57 -57 95 -92 123 -14 11 -21 7 -52
-30z"/>
</g>
</svg>
