<?xml version="1.0" encoding="utf-8"?>
<!-- Generator: Adobe Illustrator 19.2.0, SVG Export Plug-In . SVG Version: 6.00 Build 0)  -->
<svg version="1.1" id="Layer_1" xmlns="http://www.w3.org/2000/svg" xmlns:xlink="http://www.w3.org/1999/xlink" x="0px" y="0px"
	 viewBox="0 0 5.8 9.5" style="enable-background:new 0 0 5.8 9.5;" xml:space="preserve">
<style type="text/css">
	.st0{fill:#E8C10D;}
</style>
<path class="st0" d="M0,4.8C0,4.7,0,4.7,0,4.8c0-0.4,0.1-0.7,0.4-0.9l3.1-3.4C4-0.1,4.9-0.1,5.4,0.4C5.9,0.9,6,1.7,5.5,2.3L3.2,4.8
	l2.3,2.5C6,7.8,5.9,8.7,5.4,9.2C4.9,9.7,4,9.6,3.5,9.1L0.4,5.7C0.1,5.4,0,5.1,0,4.8C0,4.8,0,4.8,0,4.8z"/>
</svg>
