<?xml version="1.0" encoding="utf-8"?>
<!-- Generator: Adobe Illustrator 19.2.0, SVG Export Plug-In . SVG Version: 6.00 Build 0)  -->
<svg version="1.1" id="Layer_1" xmlns="http://www.w3.org/2000/svg" xmlns:xlink="http://www.w3.org/1999/xlink" x="0px" y="0px"
	 viewBox="0 0 5.8 9.5" style="enable-background:new 0 0 5.8 9.5;" xml:space="preserve">
<style type="text/css">
	.st0{fill:#1F7AB2;}
</style>
<path class="st0" d="M5.8,4.8C5.8,4.7,5.8,4.7,5.8,4.8c0-0.4-0.1-0.7-0.4-0.9L2.3,0.4C1.8-0.1,1-0.1,0.4,0.4
	c-0.5,0.5-0.6,1.4-0.1,1.9l2.3,2.5L0.4,7.3c-0.5,0.5-0.5,1.4,0.1,1.9C1,9.7,1.8,9.6,2.3,9.1l3.1-3.4C5.7,5.4,5.8,5.1,5.8,4.8
	C5.8,4.8,5.8,4.8,5.8,4.8z"/>
</svg>
