<?xml version="1.0" encoding="utf-8"?>
<!-- Generator: Adobe Illustrator 19.2.0, SVG Export Plug-In . SVG Version: 6.00 Build 0)  -->
<svg version="1.1" id="Layer_1" xmlns="http://www.w3.org/2000/svg" xmlns:xlink="http://www.w3.org/1999/xlink" x="0px" y="0px"
	 viewBox="0 0 880.6 179.7" style="enable-background:new 0 0 880.6 179.7;" xml:space="preserve">
<style type="text/css">
	.st0{fill:#E8C10D;}
	.st1{fill:#012235;}
</style>
<g>
	<g>
		<path class="st0" d="M155,26c0,0-41-5.7-41,41.7C114,67.7,157.9,69.8,155,26z"/>
		<path class="st0" d="M28.6,26c0,0,41-5.7,41,41.7C69.7,67.7,25.8,69.8,28.6,26z"/>
		<path class="st0" d="M181.2,89.6c0,0-25-33-58.5,0.5C122.7,90.1,152.2,122.6,181.2,89.6z"/>
		<path class="st0" d="M59.2,89.6c0,0-25-33-58.5,0.5C0.7,90.1,30.2,122.6,59.2,89.6z"/>
		<path class="st0" d="M91.3,0c0,0-33,25,0.5,58.5C91.8,58.5,124.3,29,91.3,0z"/>
		<path class="st0" d="M155,153.7c0,0-41,5.7-41-41.7C114,112,157.9,109.9,155,153.7z"/>
		<path class="st0" d="M28.6,153.7c0,0,41,5.7,41-41.7C69.7,112,25.8,109.9,28.6,153.7z"/>
		<path class="st0" d="M91.3,179.7c0,0-33-25,0.5-58.5C91.8,121.2,124.3,150.7,91.3,179.7z"/>
	</g>
	<g>
		<path class="st0" d="M211.4,146.8c-3.1-1.6-5.4-3.8-7.1-6.7c-1.7-2.9-2.5-6.2-2.5-9.9v-18c0-3.7,0.8-7.1,2.5-9.9
			c1.7-2.9,4-5.1,7.1-6.6c3.1-1.6,6.6-2.3,10.7-2.3c4,0,7.5,0.7,10.6,2.2c3,1.5,5.4,3.6,7.1,6.3c1.7,2.7,2.5,5.9,2.5,9.5
			c0,0.5-0.3,0.8-0.9,0.9l-9.1,0.5h-0.2c-0.5,0-0.8-0.3-0.8-0.9c0-2.8-0.8-5-2.5-6.6c-1.7-1.7-3.9-2.5-6.7-2.5
			c-2.8,0-5.1,0.8-6.8,2.5c-1.7,1.7-2.5,3.9-2.5,6.6v18.8c0,2.7,0.8,4.9,2.5,6.6c1.7,1.7,3.9,2.5,6.8,2.5c2.8,0,5-0.8,6.7-2.5
			c1.7-1.7,2.5-3.9,2.5-6.6c0-0.6,0.3-0.9,0.9-0.9l9.1,0.4c0.3,0,0.5,0.1,0.7,0.2c0.2,0.2,0.3,0.3,0.3,0.5c0,3.6-0.8,6.8-2.5,9.5
			c-1.7,2.8-4.1,4.9-7.1,6.4c-3,1.5-6.6,2.3-10.6,2.3C218.1,149.1,214.5,148.3,211.4,146.8z"/>
		<path class="st0" d="M253.4,145.7c-3.1-2.3-5.3-5.4-6.4-9.4c-0.7-2.4-1.1-5.1-1.1-8c0-3.1,0.4-5.8,1.1-8.3
			c1.2-3.9,3.4-6.9,6.5-9.1c3.1-2.2,6.9-3.3,11.2-3.3c4.3,0,7.9,1.1,10.9,3.2c3,2.2,5.2,5.2,6.4,9c0.8,2.6,1.2,5.3,1.2,8.2
			c0,2.8-0.4,5.4-1.1,7.9c-1.1,4.1-3.3,7.2-6.4,9.6c-3.1,2.3-6.8,3.5-11.2,3.5S256.5,148,253.4,145.7z M269,138.1
			c1.2-1,2.1-2.5,2.6-4.3c0.4-1.7,0.6-3.5,0.6-5.5c0-2.2-0.2-4-0.6-5.5c-0.6-1.8-1.5-3.1-2.7-4.1c-1.2-1-2.7-1.5-4.4-1.5
			c-1.8,0-3.2,0.5-4.4,1.5c-1.2,1-2,2.4-2.5,4.1c-0.4,1.2-0.6,3.1-0.6,5.5c0,2.3,0.2,4.2,0.5,5.5c0.5,1.8,1.4,3.3,2.6,4.3
			c1.2,1,2.7,1.6,4.5,1.6C266.3,139.7,267.8,139.2,269,138.1z"/>
		<path class="st0" d="M341.6,111.4c2.3,2.4,3.4,5.9,3.4,10.3v25.8c0,0.3-0.1,0.5-0.3,0.7c-0.2,0.2-0.4,0.3-0.7,0.3H335
			c-0.3,0-0.5-0.1-0.7-0.3c-0.2-0.2-0.3-0.4-0.3-0.7v-23.4c0-2.1-0.5-3.8-1.6-5.1s-2.6-1.9-4.4-1.9c-1.8,0-3.3,0.6-4.4,1.9
			c-1.1,1.2-1.7,2.9-1.7,5v23.5c0,0.3-0.1,0.5-0.3,0.7c-0.2,0.2-0.4,0.3-0.7,0.3h-9.1c-0.3,0-0.5-0.1-0.7-0.3
			c-0.2-0.2-0.3-0.4-0.3-0.7v-23.4c0-2.1-0.6-3.8-1.7-5c-1.1-1.3-2.6-1.9-4.5-1.9c-1.7,0-3.1,0.5-4.2,1.5c-1.1,1-1.8,2.4-2,4.1v24.7
			c0,0.3-0.1,0.5-0.3,0.7c-0.2,0.2-0.4,0.3-0.7,0.3h-9.1c-0.3,0-0.5-0.1-0.7-0.3c-0.2-0.2-0.3-0.4-0.3-0.7v-38.3
			c0-0.3,0.1-0.5,0.3-0.7c0.2-0.2,0.4-0.3,0.7-0.3h9.1c0.3,0,0.5,0.1,0.7,0.3c0.2,0.2,0.3,0.4,0.3,0.7v3c0,0.2,0.1,0.3,0.2,0.3
			s0.2,0,0.3-0.2c2.1-3.2,5.4-4.8,9.9-4.8c2.6,0,4.9,0.5,6.8,1.6c2,1.1,3.4,2.7,4.5,4.7c0.2,0.3,0.3,0.3,0.5,0
			c1.1-2.1,2.7-3.7,4.6-4.8c2-1,4.1-1.6,6.6-1.6C336.2,107.8,339.4,109,341.6,111.4z"/>
		<path class="st0" d="M404.1,111.4c2.3,2.4,3.4,5.9,3.4,10.3v25.8c0,0.3-0.1,0.5-0.3,0.7c-0.2,0.2-0.4,0.3-0.7,0.3h-9.1
			c-0.3,0-0.5-0.1-0.7-0.3c-0.2-0.2-0.3-0.4-0.3-0.7v-23.4c0-2.1-0.5-3.8-1.6-5.1s-2.6-1.9-4.4-1.9c-1.8,0-3.3,0.6-4.4,1.9
			c-1.1,1.2-1.7,2.9-1.7,5v23.5c0,0.3-0.1,0.5-0.3,0.7c-0.2,0.2-0.4,0.3-0.7,0.3h-9.1c-0.3,0-0.5-0.1-0.7-0.3
			c-0.2-0.2-0.3-0.4-0.3-0.7v-23.4c0-2.1-0.6-3.8-1.7-5c-1.1-1.3-2.6-1.9-4.5-1.9c-1.7,0-3.1,0.5-4.2,1.5c-1.1,1-1.8,2.4-2,4.1v24.7
			c0,0.3-0.1,0.5-0.3,0.7c-0.2,0.2-0.4,0.3-0.7,0.3H351c-0.3,0-0.5-0.1-0.7-0.3c-0.2-0.2-0.3-0.4-0.3-0.7v-38.3
			c0-0.3,0.1-0.5,0.3-0.7c0.2-0.2,0.4-0.3,0.7-0.3h9.1c0.3,0,0.5,0.1,0.7,0.3c0.2,0.2,0.3,0.4,0.3,0.7v3c0,0.2,0.1,0.3,0.2,0.3
			s0.2,0,0.3-0.2c2.1-3.2,5.4-4.8,9.9-4.8c2.6,0,4.9,0.5,6.8,1.6c2,1.1,3.4,2.7,4.5,4.7c0.2,0.3,0.3,0.3,0.5,0
			c1.1-2.1,2.7-3.7,4.6-4.8c2-1,4.1-1.6,6.6-1.6C398.6,107.8,401.8,109,404.1,111.4z"/>
		<path class="st0" d="M448.1,130.9c-0.1,0.6-0.4,0.9-1,0.9H423c-0.3,0-0.4,0.1-0.3,0.4c0.2,1,0.4,2.1,0.9,3.1
			c1.4,2.9,4.1,4.4,8.3,4.4c3.3-0.1,6-1.4,7.9-4.1c0.2-0.3,0.4-0.5,0.7-0.5c0.2,0,0.3,0.1,0.5,0.3l5.6,5.5c0.3,0.3,0.4,0.5,0.4,0.7
			c0,0.1-0.1,0.3-0.3,0.6c-1.7,2.1-3.9,3.8-6.6,5c-2.7,1.2-5.7,1.8-8.9,1.8c-4.5,0-8.3-1-11.4-3c-3.1-2-5.3-4.9-6.7-8.5
			c-1.1-2.6-1.6-6-1.6-10.2c0-2.9,0.4-5.4,1.2-7.6c1.2-3.7,3.3-6.6,6.3-8.8c3-2.2,6.5-3.3,10.7-3.3c5.2,0,9.4,1.5,12.5,4.5
			c3.1,3,5.1,7.1,5.7,12.1C448.1,126.3,448.2,128.5,448.1,130.9z M423.1,121.8c-0.2,0.7-0.4,1.5-0.5,2.5c0,0.3,0.1,0.4,0.4,0.4h13.5
			c0.3,0,0.4-0.1,0.3-0.4c-0.3-1.5-0.4-2.2-0.4-2.2c-0.5-1.6-1.3-2.8-2.5-3.6c-1.2-0.9-2.6-1.3-4.3-1.3
			C426.3,117.2,424.2,118.7,423.1,121.8z"/>
		<path class="st0" d="M476.6,108.9c0.4,0.2,0.6,0.6,0.5,1.2l-1.6,8.9c-0.1,0.6-0.4,0.8-1.1,0.5c-0.8-0.3-1.7-0.4-2.7-0.4
			c-0.4,0-1,0.1-1.7,0.2c-1.9,0.2-3.5,0.8-4.8,2.1c-1.3,1.2-2,2.8-2,4.9v21.3c0,0.3-0.1,0.5-0.3,0.7c-0.2,0.2-0.4,0.3-0.7,0.3h-9.1
			c-0.3,0-0.5-0.1-0.7-0.3c-0.2-0.2-0.3-0.4-0.3-0.7v-38.3c0-0.3,0.1-0.5,0.3-0.7c0.2-0.2,0.4-0.3,0.7-0.3h9.1
			c0.3,0,0.5,0.1,0.7,0.3c0.2,0.2,0.3,0.4,0.3,0.7v3c0,0.2,0.1,0.3,0.2,0.3s0.2,0,0.2-0.1c2.1-3.1,5-4.7,8.6-4.7
			C474,107.8,475.5,108.2,476.6,108.9z"/>
		<path class="st0" d="M485.2,146c-3-2.1-5.2-4.9-6.5-8.6c-0.9-2.6-1.3-5.7-1.3-9.2c0-3.5,0.4-6.5,1.3-9.1c1.2-3.5,3.4-6.3,6.5-8.4
			c3.1-2,6.7-3,10.9-3c4.2,0,7.8,1,11,3.1c3.1,2.1,5.2,4.7,6.3,7.9c0.4,1.2,0.6,2.2,0.6,2.8v0.2c0,0.5-0.3,0.8-0.8,0.9l-9,1.3h-0.2
			c-0.5,0-0.8-0.3-0.9-0.8l-0.2-1.2c-0.4-1.4-1.2-2.5-2.4-3.4c-1.2-0.9-2.7-1.3-4.4-1.3c-1.7,0-3.1,0.4-4.2,1.2
			c-1.1,0.8-2,2-2.4,3.4c-0.6,1.6-0.9,3.7-0.9,6.4s0.3,4.8,0.8,6.4c0.5,1.6,1.3,2.8,2.5,3.7c1.2,0.9,2.6,1.3,4.3,1.3
			c1.6,0,3-0.4,4.3-1.3c1.2-0.9,2.1-2,2.5-3.6c0.1-0.1,0.1-0.3,0.1-0.5c0.1-0.1,0.1-0.1,0.1-0.2c0.1-0.6,0.4-0.9,1.1-0.8l9,1.4
			c0.5,0.1,0.8,0.4,0.8,0.9c0,0.4-0.2,1.2-0.5,2.3c-1.1,3.5-3.2,6.2-6.4,8.2c-3.1,2-6.8,3-10.9,3C491.8,149.1,488.2,148.1,485.2,146
			z"/>
		<path class="st0" d="M519,102.1c-1.2-1.2-1.8-2.6-1.8-4.4c0-1.8,0.6-3.3,1.7-4.4c1.1-1.1,2.6-1.7,4.5-1.7c1.8,0,3.3,0.6,4.4,1.7
			c1.1,1.1,1.7,2.6,1.7,4.4c0,1.8-0.6,3.2-1.8,4.4c-1.2,1.2-2.6,1.8-4.4,1.8C521.7,103.9,520.2,103.3,519,102.1z M518.1,148.2
			c-0.2-0.2-0.3-0.4-0.3-0.7v-38.3c0-0.3,0.1-0.5,0.3-0.7c0.2-0.2,0.4-0.3,0.7-0.3h9.1c0.3,0,0.5,0.1,0.7,0.3
			c0.2,0.2,0.3,0.4,0.3,0.7v38.3c0,0.3-0.1,0.5-0.3,0.7c-0.2,0.2-0.4,0.3-0.7,0.3h-9.1C518.5,148.5,518.3,148.4,518.1,148.2z"/>
		<path class="st0" d="M559.7,109.5c2.7,1.2,4.7,2.8,6.2,4.8c1.5,2,2.2,4.3,2.2,6.8v26.5c0,0.3-0.1,0.5-0.3,0.7
			c-0.2,0.2-0.4,0.3-0.7,0.3h-9.1c-0.3,0-0.5-0.1-0.7-0.3c-0.2-0.2-0.3-0.4-0.3-0.7V145c0-0.2-0.1-0.3-0.2-0.3
			c-0.1-0.1-0.2,0-0.3,0.2c-2.2,2.9-5.7,4.3-10.5,4.3c-4.1,0-7.3-1-9.8-3c-2.5-2-3.7-4.9-3.7-8.7c0-4,1.4-7.1,4.2-9.3
			c2.8-2.2,6.8-3.3,12-3.3h8c0.3,0,0.4-0.1,0.4-0.4v-1.7c0-1.7-0.5-3.1-1.6-4s-2.6-1.4-4.7-1.4c-1.6,0-3,0.3-4,0.9
			c-1.1,0.6-1.8,1.4-2.1,2.4c-0.2,0.6-0.5,0.8-1,0.8l-9.4-1.2c-0.6-0.1-0.9-0.3-0.9-0.7c0.2-2.2,1.1-4.2,2.6-5.9
			c1.5-1.8,3.6-3.1,6.1-4.1c2.5-1,5.3-1.5,8.5-1.5C554.1,107.8,557.1,108.3,559.7,109.5z M554.8,139.1c1.6-1.2,2.3-2.7,2.3-4.6v-2.8
			c0-0.3-0.1-0.4-0.4-0.4h-5.6c-2.3,0-4.2,0.4-5.5,1.3c-1.3,0.9-2,2.1-2,3.7c0,1.4,0.5,2.5,1.5,3.3c1,0.8,2.3,1.2,4,1.2
			C551.4,140.9,553.3,140.3,554.8,139.1z"/>
		<path class="st0" d="M573.4,148.2c-0.2-0.2-0.3-0.4-0.3-0.7V94.8c0-0.3,0.1-0.5,0.3-0.7c0.2-0.2,0.4-0.3,0.7-0.3h9.1
			c0.3,0,0.5,0.1,0.7,0.3c0.2,0.2,0.3,0.4,0.3,0.7v52.8c0,0.3-0.1,0.5-0.3,0.7c-0.2,0.2-0.4,0.3-0.7,0.3h-9.1
			C573.9,148.5,573.6,148.4,573.4,148.2z"/>
		<path class="st0" d="M610.9,147.1c-3.1-1.3-5.5-3.2-7.2-5.7c-1.7-2.5-2.5-5.3-2.5-8.6v-1.7c0-0.3,0.1-0.5,0.3-0.7
			c0.2-0.2,0.4-0.3,0.7-0.3h8.9c0.3,0,0.5,0.1,0.7,0.3c0.2,0.2,0.3,0.4,0.3,0.7v1.2c0,2.1,1,3.8,2.9,5.3c1.9,1.4,4.5,2.1,7.8,2.1
			c2.8,0,4.8-0.6,6.2-1.8c1.4-1.2,2-2.6,2-4.3c0-1.2-0.4-2.3-1.2-3.2c-0.8-0.9-2-1.6-3.4-2.3c-1.4-0.7-3.7-1.5-6.8-2.7
			c-3.5-1.2-6.4-2.4-8.9-3.7s-4.4-3-6.1-5.1c-1.6-2.2-2.5-4.8-2.5-8c0-3.1,0.8-5.9,2.4-8.2c1.6-2.3,3.9-4.1,6.7-5.4s6.2-1.9,9.9-1.9
			c4,0,7.5,0.7,10.6,2.1c3.1,1.4,5.5,3.4,7.3,5.9c1.7,2.5,2.6,5.5,2.6,8.8v1.2c0,0.3-0.1,0.5-0.3,0.7c-0.2,0.2-0.4,0.3-0.7,0.3h-9
			c-0.3,0-0.5-0.1-0.7-0.3c-0.2-0.2-0.3-0.4-0.3-0.7v-0.6c0-2.2-0.9-4-2.7-5.6c-1.8-1.5-4.3-2.3-7.4-2.3c-2.4,0-4.4,0.5-5.7,1.6
			s-2.1,2.5-2.1,4.3c0,1.3,0.4,2.4,1.2,3.3c0.8,0.9,2,1.7,3.6,2.4c1.6,0.7,4,1.7,7.4,2.8c3.7,1.4,6.6,2.6,8.7,3.6
			c2.1,1,4,2.6,5.7,4.6c1.7,2.1,2.5,4.7,2.5,8c0,4.9-1.8,8.8-5.4,11.6c-3.6,2.8-8.5,4.3-14.6,4.3C617.6,149.1,614,148.5,610.9,147.1
			z"/>
		<path class="st0" d="M681.9,130.9c-0.1,0.6-0.4,0.9-1,0.9h-24.1c-0.3,0-0.4,0.1-0.3,0.4c0.2,1,0.4,2.1,0.9,3.1
			c1.4,2.9,4.1,4.4,8.3,4.4c3.3-0.1,6-1.4,7.9-4.1c0.2-0.3,0.4-0.5,0.7-0.5c0.2,0,0.3,0.1,0.5,0.3l5.6,5.5c0.3,0.3,0.4,0.5,0.4,0.7
			c0,0.1-0.1,0.3-0.3,0.6c-1.7,2.1-3.9,3.8-6.6,5c-2.7,1.2-5.7,1.8-8.9,1.8c-4.5,0-8.3-1-11.4-3c-3.1-2-5.3-4.9-6.7-8.5
			c-1.1-2.6-1.6-6-1.6-10.2c0-2.9,0.4-5.4,1.2-7.6c1.2-3.7,3.3-6.6,6.3-8.8c3-2.2,6.5-3.3,10.7-3.3c5.2,0,9.4,1.5,12.5,4.5
			c3.1,3,5.1,7.1,5.7,12.1C681.9,126.3,682,128.5,681.9,130.9z M656.9,121.8c-0.2,0.7-0.4,1.5-0.5,2.5c0,0.3,0.1,0.4,0.4,0.4h13.5
			c0.3,0,0.4-0.1,0.3-0.4c-0.3-1.5-0.4-2.2-0.4-2.2c-0.5-1.6-1.3-2.8-2.5-3.6c-1.2-0.9-2.6-1.3-4.3-1.3
			C660.1,117.2,658,118.7,656.9,121.8z"/>
		<path class="st0" d="M710.4,108.9c0.4,0.2,0.6,0.6,0.5,1.2l-1.6,8.9c-0.1,0.6-0.4,0.8-1.1,0.5c-0.8-0.3-1.7-0.4-2.7-0.4
			c-0.4,0-1,0.1-1.7,0.2c-1.9,0.2-3.5,0.8-4.8,2.1c-1.3,1.2-2,2.8-2,4.9v21.3c0,0.3-0.1,0.5-0.3,0.7c-0.2,0.2-0.4,0.3-0.7,0.3h-9.1
			c-0.3,0-0.5-0.1-0.7-0.3c-0.2-0.2-0.3-0.4-0.3-0.7v-38.3c0-0.3,0.1-0.5,0.3-0.7c0.2-0.2,0.4-0.3,0.7-0.3h9.1
			c0.3,0,0.5,0.1,0.7,0.3c0.2,0.2,0.3,0.4,0.3,0.7v3c0,0.2,0.1,0.3,0.2,0.3s0.2,0,0.2-0.1c2.1-3.1,5-4.7,8.6-4.7
			C707.8,107.8,709.3,108.2,710.4,108.9z"/>
		<path class="st0" d="M724.1,147.7l-12.5-38.3c-0.1-0.1-0.1-0.2-0.1-0.4c0-0.5,0.3-0.7,0.9-0.7h10.1c0.6,0,0.9,0.3,1.1,0.8
			l6.4,23.7c0.1,0.2,0.1,0.2,0.2,0.2c0.1,0,0.2-0.1,0.2-0.2l6.4-23.7c0.2-0.5,0.5-0.8,1.1-0.8l10.1,0.2c0.3,0,0.5,0.1,0.7,0.3
			c0.2,0.2,0.2,0.5,0.1,0.8l-12.4,38.2c-0.2,0.5-0.5,0.8-1,0.8h-10.2C724.6,148.5,724.3,148.2,724.1,147.7z"/>
		<path class="st0" d="M753.4,102.1c-1.2-1.2-1.8-2.6-1.8-4.4c0-1.8,0.6-3.3,1.7-4.4c1.1-1.1,2.6-1.7,4.5-1.7c1.8,0,3.3,0.6,4.4,1.7
			c1.1,1.1,1.7,2.6,1.7,4.4c0,1.8-0.6,3.2-1.8,4.4c-1.2,1.2-2.6,1.8-4.4,1.8C756,103.9,754.5,103.3,753.4,102.1z M752.4,148.2
			c-0.2-0.2-0.3-0.4-0.3-0.7v-38.3c0-0.3,0.1-0.5,0.3-0.7c0.2-0.2,0.4-0.3,0.7-0.3h9.1c0.3,0,0.5,0.1,0.7,0.3
			c0.2,0.2,0.3,0.4,0.3,0.7v38.3c0,0.3-0.1,0.5-0.3,0.7c-0.2,0.2-0.4,0.3-0.7,0.3h-9.1C752.8,148.5,752.6,148.4,752.4,148.2z"/>
		<path class="st0" d="M775.9,146c-3-2.1-5.2-4.9-6.5-8.6c-0.9-2.6-1.3-5.7-1.3-9.2c0-3.5,0.4-6.5,1.3-9.1c1.2-3.5,3.4-6.3,6.5-8.4
			c3.1-2,6.7-3,10.9-3c4.2,0,7.8,1,11,3.1c3.1,2.1,5.2,4.7,6.3,7.9c0.4,1.2,0.6,2.2,0.6,2.8v0.2c0,0.5-0.3,0.8-0.8,0.9l-9,1.3h-0.2
			c-0.5,0-0.8-0.3-0.9-0.8l-0.2-1.2c-0.4-1.4-1.2-2.5-2.4-3.4c-1.2-0.9-2.7-1.3-4.4-1.3c-1.7,0-3.1,0.4-4.2,1.2
			c-1.1,0.8-2,2-2.4,3.4c-0.6,1.6-0.9,3.7-0.9,6.4s0.3,4.8,0.8,6.4c0.5,1.6,1.3,2.8,2.5,3.7c1.2,0.9,2.6,1.3,4.3,1.3
			c1.6,0,3-0.4,4.3-1.3c1.2-0.9,2.1-2,2.5-3.6c0.1-0.1,0.1-0.3,0.1-0.5c0.1-0.1,0.1-0.1,0.1-0.2c0.1-0.6,0.4-0.9,1.1-0.8l9,1.4
			c0.5,0.1,0.8,0.4,0.8,0.9c0,0.4-0.2,1.2-0.5,2.3c-1.1,3.5-3.2,6.2-6.4,8.2c-3.1,2-6.8,3-10.9,3C782.5,149.1,778.9,148.1,775.9,146
			z"/>
		<path class="st0" d="M843.6,130.9c-0.1,0.6-0.4,0.9-1,0.9h-24.1c-0.3,0-0.4,0.1-0.3,0.4c0.2,1,0.4,2.1,0.9,3.1
			c1.4,2.9,4.1,4.4,8.3,4.4c3.3-0.1,6-1.4,7.9-4.1c0.2-0.3,0.4-0.5,0.7-0.5c0.2,0,0.3,0.1,0.5,0.3l5.6,5.5c0.3,0.3,0.4,0.5,0.4,0.7
			c0,0.1-0.1,0.3-0.3,0.6c-1.7,2.1-3.9,3.8-6.6,5c-2.7,1.2-5.7,1.8-8.9,1.8c-4.5,0-8.3-1-11.4-3c-3.1-2-5.3-4.9-6.7-8.5
			c-1.1-2.6-1.6-6-1.6-10.2c0-2.9,0.4-5.4,1.2-7.6c1.2-3.7,3.3-6.6,6.3-8.8c3-2.2,6.5-3.3,10.7-3.3c5.2,0,9.4,1.5,12.5,4.5
			c3.1,3,5.1,7.1,5.7,12.1C843.6,126.3,843.7,128.5,843.6,130.9z M818.6,121.8c-0.2,0.7-0.4,1.5-0.5,2.5c0,0.3,0.1,0.4,0.4,0.4h13.5
			c0.3,0,0.4-0.1,0.3-0.4c-0.3-1.5-0.4-2.2-0.4-2.2c-0.5-1.6-1.3-2.8-2.5-3.6c-1.2-0.9-2.6-1.3-4.3-1.3
			C821.8,117.2,819.6,118.7,818.6,121.8z"/>
		<path class="st0" d="M854,147.6c-2.6-1-4.6-2.4-6-4.1c-1.4-1.8-2.1-3.8-2.1-6v-0.8c0-0.3,0.1-0.5,0.3-0.7c0.2-0.2,0.4-0.3,0.7-0.3
			h8.7c0.3,0,0.5,0.1,0.7,0.3c0.2,0.2,0.3,0.4,0.3,0.7v0.1c0,1.1,0.6,2.1,1.9,2.9c1.3,0.8,2.9,1.2,4.8,1.2c1.8,0,3.2-0.4,4.3-1.1
			c1.1-0.7,1.6-1.6,1.6-2.6c0-0.9-0.5-1.6-1.4-2.1s-2.5-1-4.6-1.5c-2.4-0.6-4.4-1.2-5.8-1.8c-3.3-1.1-6-2.5-8-4.2
			c-2-1.7-3-4.1-3-7.2c0-3.9,1.5-6.9,4.5-9.2c3-2.3,7-3.4,11.9-3.4c3.3,0,6.2,0.5,8.7,1.6c2.5,1.1,4.4,2.6,5.8,4.5
			c1.4,1.9,2.1,4.1,2.1,6.6c0,0.3-0.1,0.5-0.3,0.7c-0.2,0.2-0.4,0.3-0.7,0.3H870c-0.3,0-0.5-0.1-0.7-0.3c-0.2-0.2-0.3-0.4-0.3-0.7
			c0-1.1-0.6-2.1-1.8-2.9c-1.2-0.8-2.7-1.2-4.6-1.2c-1.7,0-3.1,0.3-4.2,0.9c-1.1,0.6-1.6,1.5-1.6,2.6c0,1,0.5,1.8,1.6,2.3
			c1.1,0.5,2.8,1.1,5.3,1.6c0.6,0.2,1.2,0.3,2,0.5c0.7,0.2,1.5,0.4,2.3,0.7c3.7,1.1,6.6,2.5,8.7,4.2c2.1,1.7,3.2,4.2,3.2,7.5
			c0,3.9-1.5,6.9-4.6,9c-3,2.2-7.1,3.2-12.3,3.2C859.6,149.1,856.6,148.6,854,147.6z"/>
	</g>
	<g>
		<path class="st0" d="M234.5,29.3c2.6,1.4,4.6,3.4,6,6c1.4,2.6,2.1,5.5,2.1,8.9c0,3.3-0.7,6.2-2.2,8.7s-3.6,4.4-6.2,5.8
			c-2.7,1.4-5.8,2.1-9.2,2.1h-11.1c-0.3,0-0.4,0.1-0.4,0.4v19.9c0,0.3-0.1,0.5-0.3,0.7c-0.2,0.2-0.4,0.3-0.7,0.3h-9.1
			c-0.3,0-0.5-0.1-0.7-0.3c-0.2-0.2-0.3-0.4-0.3-0.7V28.1c0-0.3,0.1-0.5,0.3-0.7c0.2-0.2,0.4-0.3,0.7-0.3h22
			C228.9,27.2,231.9,27.9,234.5,29.3z M229.6,49.8c1.5-1.4,2.2-3.2,2.2-5.4c0-2.3-0.7-4.1-2.2-5.5c-1.5-1.4-3.4-2.1-5.8-2.1h-9.9
			c-0.3,0-0.4,0.1-0.4,0.4v14.4c0,0.3,0.1,0.4,0.4,0.4h9.9C226.2,51.8,228.2,51.1,229.6,49.8z"/>
		<path class="st0" d="M270.5,42.3c0.4,0.2,0.6,0.6,0.5,1.2l-1.6,8.9c-0.1,0.6-0.4,0.8-1.1,0.5c-0.8-0.3-1.7-0.4-2.7-0.4
			c-0.4,0-1,0.1-1.7,0.2c-1.9,0.2-3.5,0.8-4.8,2.1c-1.3,1.2-2,2.8-2,4.9v21.3c0,0.3-0.1,0.5-0.3,0.7c-0.2,0.2-0.4,0.3-0.7,0.3H247
			c-0.3,0-0.5-0.1-0.7-0.3c-0.2-0.2-0.3-0.4-0.3-0.7V42.7c0-0.3,0.1-0.5,0.3-0.7c0.2-0.2,0.4-0.3,0.7-0.3h9.1c0.3,0,0.5,0.1,0.7,0.3
			c0.2,0.2,0.3,0.4,0.3,0.7v3c0,0.2,0.1,0.3,0.2,0.3c0.1,0.1,0.2,0,0.2-0.1c2.1-3.1,5-4.7,8.6-4.7C268,41.2,269.4,41.6,270.5,42.3z"
			/>
		<path class="st0" d="M308.1,64.3c-0.1,0.6-0.4,0.9-1,0.9h-24.1c-0.3,0-0.4,0.1-0.3,0.4c0.2,1,0.4,2.1,0.9,3.1
			c1.4,2.9,4.1,4.4,8.3,4.4c3.3-0.1,6-1.4,7.9-4.1c0.2-0.3,0.4-0.5,0.7-0.5c0.2,0,0.3,0.1,0.5,0.3l5.6,5.5c0.3,0.3,0.4,0.5,0.4,0.7
			c0,0.1-0.1,0.3-0.3,0.6c-1.7,2.1-3.9,3.8-6.6,5c-2.7,1.2-5.7,1.8-8.9,1.8c-4.5,0-8.3-1-11.4-3c-3.1-2-5.3-4.9-6.7-8.5
			c-1.1-2.6-1.6-6-1.6-10.2c0-2.9,0.4-5.4,1.2-7.6c1.2-3.7,3.3-6.6,6.3-8.8c3-2.2,6.5-3.3,10.7-3.3c5.2,0,9.4,1.5,12.5,4.5
			c3.1,3,5.1,7.1,5.7,12.1C308.1,59.7,308.2,61.9,308.1,64.3z M283.1,55.2c-0.2,0.7-0.4,1.5-0.5,2.5c0,0.3,0.1,0.4,0.4,0.4h13.5
			c0.3,0,0.4-0.1,0.3-0.4c-0.3-1.5-0.4-2.2-0.4-2.2c-0.5-1.6-1.3-2.8-2.5-3.6c-1.2-0.9-2.6-1.3-4.3-1.3
			C286.3,50.6,284.1,52.1,283.1,55.2z"/>
		<path class="st0" d="M366.2,44.8c2.3,2.4,3.4,5.9,3.4,10.3v25.8c0,0.3-0.1,0.5-0.3,0.7c-0.2,0.2-0.4,0.3-0.7,0.3h-9.1
			c-0.3,0-0.5-0.1-0.7-0.3c-0.2-0.2-0.3-0.4-0.3-0.7V57.5c0-2.1-0.5-3.8-1.6-5.1s-2.6-1.9-4.4-1.9c-1.8,0-3.3,0.6-4.4,1.9
			c-1.1,1.2-1.7,2.9-1.7,5v23.5c0,0.3-0.1,0.5-0.3,0.7c-0.2,0.2-0.4,0.3-0.7,0.3h-9.1c-0.3,0-0.5-0.1-0.7-0.3
			c-0.2-0.2-0.3-0.4-0.3-0.7V57.5c0-2.1-0.6-3.8-1.7-5c-1.1-1.3-2.6-1.9-4.5-1.9c-1.7,0-3.1,0.5-4.2,1.5c-1.1,1-1.8,2.4-2,4.1v24.7
			c0,0.3-0.1,0.5-0.3,0.7c-0.2,0.2-0.4,0.3-0.7,0.3h-9.1c-0.3,0-0.5-0.1-0.7-0.3c-0.2-0.2-0.3-0.4-0.3-0.7V42.7
			c0-0.3,0.1-0.5,0.3-0.7c0.2-0.2,0.4-0.3,0.7-0.3h9.1c0.3,0,0.5,0.1,0.7,0.3c0.2,0.2,0.3,0.4,0.3,0.7v3c0,0.2,0.1,0.3,0.2,0.3
			c0.1,0.1,0.2,0,0.3-0.2c2.1-3.2,5.4-4.8,9.9-4.8c2.6,0,4.9,0.5,6.8,1.6c2,1.1,3.4,2.7,4.5,4.7c0.2,0.3,0.3,0.3,0.5,0
			c1.1-2.1,2.7-3.7,4.6-4.8c2-1,4.1-1.6,6.6-1.6C360.7,41.1,363.9,42.4,366.2,44.8z"/>
		<path class="st0" d="M376.1,35.5c-1.2-1.2-1.8-2.6-1.8-4.4c0-1.8,0.6-3.3,1.7-4.4c1.1-1.1,2.6-1.7,4.5-1.7c1.8,0,3.3,0.6,4.4,1.7
			c1.1,1.1,1.7,2.6,1.7,4.4c0,1.8-0.6,3.2-1.8,4.4s-2.6,1.8-4.4,1.8C378.8,37.2,377.3,36.6,376.1,35.5z M375.2,81.6
			c-0.2-0.2-0.3-0.4-0.3-0.7V42.6c0-0.3,0.1-0.5,0.3-0.7c0.2-0.2,0.4-0.3,0.7-0.3h9.1c0.3,0,0.5,0.1,0.7,0.3
			c0.2,0.2,0.3,0.4,0.3,0.7v38.3c0,0.3-0.1,0.5-0.3,0.7c-0.2,0.2-0.4,0.3-0.7,0.3h-9.1C375.6,81.9,375.4,81.8,375.2,81.6z"/>
		<path class="st0" d="M427.6,64.3c-0.1,0.6-0.4,0.9-1,0.9h-24.1c-0.3,0-0.4,0.1-0.3,0.4c0.2,1,0.4,2.1,0.9,3.1
			c1.4,2.9,4.1,4.4,8.3,4.4c3.3-0.1,6-1.4,7.9-4.1c0.2-0.3,0.4-0.5,0.7-0.5c0.2,0,0.3,0.1,0.5,0.3l5.6,5.5c0.3,0.3,0.4,0.5,0.4,0.7
			c0,0.1-0.1,0.3-0.3,0.6c-1.7,2.1-3.9,3.8-6.6,5c-2.7,1.2-5.7,1.8-8.9,1.8c-4.5,0-8.3-1-11.4-3c-3.1-2-5.3-4.9-6.7-8.5
			c-1.1-2.6-1.6-6-1.6-10.2c0-2.9,0.4-5.4,1.2-7.6c1.2-3.7,3.3-6.6,6.3-8.8c3-2.2,6.5-3.3,10.7-3.3c5.2,0,9.4,1.5,12.5,4.5
			c3.1,3,5.1,7.1,5.7,12.1C427.6,59.7,427.7,61.9,427.6,64.3z M402.6,55.2c-0.2,0.7-0.4,1.5-0.5,2.5c0,0.3,0.1,0.4,0.4,0.4H416
			c0.3,0,0.4-0.1,0.3-0.4c-0.3-1.5-0.4-2.2-0.4-2.2c-0.5-1.6-1.3-2.8-2.5-3.6c-1.2-0.9-2.6-1.3-4.3-1.3
			C405.8,50.6,403.7,52.1,402.6,55.2z"/>
		<path class="st0" d="M456.1,42.3c0.4,0.2,0.6,0.6,0.5,1.2l-1.6,8.9c-0.1,0.6-0.4,0.8-1.1,0.5c-0.8-0.3-1.7-0.4-2.7-0.4
			c-0.4,0-1,0.1-1.7,0.2c-1.9,0.2-3.5,0.8-4.8,2.1c-1.3,1.2-2,2.8-2,4.9v21.3c0,0.3-0.1,0.5-0.3,0.7c-0.2,0.2-0.4,0.3-0.7,0.3h-9.1
			c-0.3,0-0.5-0.1-0.7-0.3c-0.2-0.2-0.3-0.4-0.3-0.7V42.7c0-0.3,0.1-0.5,0.3-0.7c0.2-0.2,0.4-0.3,0.7-0.3h9.1c0.3,0,0.5,0.1,0.7,0.3
			c0.2,0.2,0.3,0.4,0.3,0.7v3c0,0.2,0.1,0.3,0.2,0.3c0.1,0.1,0.2,0,0.2-0.1c2.1-3.1,5-4.7,8.6-4.7C453.5,41.2,455,41.6,456.1,42.3z"
			/>
	</g>
</g>
</svg>
