<?xml version="1.0" encoding="utf-8"?>
<!-- Generator: Adobe Illustrator 19.2.0, SVG Export Plug-In . SVG Version: 6.00 Build 0)  -->
<svg version="1.1" id="Layer_1" xmlns="http://www.w3.org/2000/svg" xmlns:xlink="http://www.w3.org/1999/xlink" x="0px" y="0px"
	 viewBox="0 0 180.5 179.7" style="enable-background:new 0 0 180.5 179.7;" xml:space="preserve">
<style type="text/css">
	.st0{fill:#E8C10D;}
</style>
<g>
	<g>
		<path class="st0" d="M199.5-208.4H210c5.7,0,9.4,3.9,9.4,9.8v4.8c0,5.9-3.8,9.8-9.4,9.8h-5.7v18.2h-4.8V-208.4z M210-188.8
			c2.8,0,4.7-2,4.7-5.1v-4.8c0-3-1.8-5-4.7-5h-5.7v14.8H210z"/>
		<path class="st0" d="M239.7-197v4.5h-2.5c-3.1,0-5,2-5,5.2v21.5h-4.6v-30.9h4.6v2.4c1.4-1.8,3.5-2.7,6.1-2.7H239.7z"/>
		<path class="st0" d="M249.6-180.4v5.5c0,3.2,2,5.3,5.2,5.3c3.2,0,5.1-2.2,5.1-5.3v-0.8h4.6v0.6c0,6.1-3.9,10.1-9.7,10.1
			c-5.9,0-9.8-4-9.8-10.1v-12.1c0-6,4-10.1,9.8-10.1c5.8,0,9.7,4,9.7,10.1v6.9H249.6z M249.6-187.5v2.7h10.3v-2.7
			c0-3.2-1.9-5.3-5.1-5.3C251.6-192.8,249.6-190.6,249.6-187.5z"/>
		<path class="st0" d="M307.1-188.1v22.3h-4.5v-21.7c0-3.2-2-5.3-5-5.3c-3.1,0-5.1,2.2-5.1,5.3v21.7H288v-21.7c0-3.2-1.9-5.3-5-5.3
			c-3.1,0-5,2.2-5,5.3v21.7h-4.6v-30.9h4.6v2c1.4-1.8,3.5-2.7,6.1-2.7c3.2,0,6,1.4,7.4,4.4c1.4-2.7,3.8-4.4,7.2-4.4
			C303.5-197.3,307.1-194.2,307.1-188.1z"/>
		<path class="st0" d="M316.8-206.7h4.6v6.8h-4.6V-206.7z M316.8-196.7h4.6v30.9h-4.6V-196.7z"/>
		<path class="st0" d="M335-180.4v5.5c0,3.2,2,5.3,5.2,5.3c3.2,0,5.1-2.2,5.1-5.3v-0.8h4.6v0.6c0,6.1-3.9,10.1-9.7,10.1
			c-5.9,0-9.8-4-9.8-10.1v-12.1c0-6,4-10.1,9.8-10.1c5.8,0,9.7,4,9.7,10.1v6.9H335z M335-187.5v2.7h10.3v-2.7c0-3.2-1.9-5.3-5.1-5.3
			C337-192.8,335-190.6,335-187.5z"/>
		<path class="st0" d="M370.9-197v4.5h-2.5c-3.1,0-5,2-5,5.2v21.5h-4.6v-30.9h4.6v2.4c1.4-1.8,3.5-2.7,6.1-2.7H370.9z"/>
	</g>
	<g>
		<path class="st0" d="M219.2-126.8c0,6.3-4,10.5-10.2,10.5c-6.1,0-10.1-4.2-10.1-10.5v-23.4c0-6.3,4-10.5,10.1-10.5
			c6.1,0,10.2,4.2,10.2,10.5v1.5h-4.8v-1.5c0-3.5-2.1-5.7-5.4-5.7c-3.2,0-5.3,2.3-5.3,5.7v23.4c0,3.5,2.1,5.7,5.3,5.7
			c3.3,0,5.4-2.3,5.4-5.7v-1.5h4.8V-126.8z"/>
		<path class="st0" d="M226.8-126.7v-12.1c0-6,4-10.1,9.8-10.1c5.8,0,9.7,4,9.7,10.1v12.1c0,6.1-3.9,10.1-9.7,10.1
			C230.8-116.6,226.8-120.6,226.8-126.7z M241.7-126.5V-139c0-3.2-1.9-5.3-5.1-5.3c-3.2,0-5.2,2.2-5.2,5.3v12.5c0,3.2,2,5.3,5.2,5.3
			C239.8-121.1,241.7-123.3,241.7-126.5z"/>
		<path class="st0" d="M289.2-139.6v22.3h-4.5V-139c0-3.2-2-5.3-5-5.3c-3.1,0-5.1,2.2-5.1,5.3v21.7H270V-139c0-3.2-1.9-5.3-5-5.3
			c-3.1,0-5,2.2-5,5.3v21.7h-4.6v-30.9h4.6v2c1.4-1.8,3.5-2.7,6.1-2.7c3.2,0,6,1.4,7.4,4.4c1.4-2.7,3.8-4.4,7.2-4.4
			C285.5-148.8,289.2-145.7,289.2-139.6z"/>
		<path class="st0" d="M332.6-139.6v22.3H328V-139c0-3.2-2-5.3-5-5.3c-3.1,0-5.1,2.2-5.1,5.3v21.7h-4.5V-139c0-3.2-1.9-5.3-5-5.3
			s-5,2.2-5,5.3v21.7h-4.6v-30.9h4.6v2c1.4-1.8,3.5-2.7,6.1-2.7c3.2,0,6,1.4,7.4,4.4c1.4-2.7,3.8-4.4,7.2-4.4
			C328.9-148.8,332.6-145.7,332.6-139.6z"/>
		<path class="st0" d="M345.9-131.9v5.5c0,3.2,2,5.3,5.2,5.3c3.2,0,5.1-2.2,5.1-5.3v-0.8h4.6v0.6c0,6.1-3.9,10.1-9.7,10.1
			c-5.9,0-9.8-4-9.8-10.1v-12.1c0-6,4-10.1,9.8-10.1c5.8,0,9.7,4,9.7,10.1v6.9H345.9z M345.9-139v2.7h10.3v-2.7
			c0-3.2-1.9-5.3-5.1-5.3C347.9-144.3,345.9-142.1,345.9-139z"/>
		<path class="st0" d="M381.9-148.5v4.5h-2.5c-3.1,0-5,2-5,5.2v21.5h-4.6v-30.9h4.6v2.4c1.4-1.8,3.5-2.7,6.1-2.7H381.9z"/>
		<path class="st0" d="M406.7-126.7c0,6.1-3.9,10.1-9.7,10.1c-5.9,0-9.8-4-9.8-10.1v-12.1c0-6,4-10.1,9.8-10.1c5.8,0,9.7,4,9.7,10.1
			v0.6h-4.6v-0.7c0-3.2-1.9-5.3-5.1-5.3c-3.2,0-5.2,2.2-5.2,5.3v12.5c0,3.2,2,5.3,5.2,5.3c3.2,0,5.1-2.2,5.1-5.3v-0.8h4.6V-126.7z"
			/>
		<path class="st0" d="M414.8-158.2h4.6v6.8h-4.6V-158.2z M414.8-148.2h4.6v30.9h-4.6V-148.2z"/>
		<path class="st0" d="M447.6-138.8v21.5h-4.5v-2.2c-1.5,1.9-3.8,2.9-6.8,2.9c-5.6,0-8.8-3.5-8.8-8.4c0-4.4,2.7-6.5,5.5-7.7
			c4.4-1.9,10.1-1.8,10.1-5.7v-0.7c0-3.2-2-5.3-5.3-5.3c-3.2,0-5.1,2.2-5.1,5.3v1h-4.6v-0.8c0-6,3.9-10.1,9.7-10.1
			C443.6-148.8,447.6-144.8,447.6-138.8z M443.1-126.7v-5.3c-2.2,1.4-5,1.6-7.3,2.4c-2.1,0.7-3.7,1.9-3.7,4.3c0,2.6,1.9,4.4,5.2,4.4
			C440.9-120.9,443.1-123,443.1-126.7z"/>
		<path class="st0" d="M457.1-159.9h4.6v42.6h-4.6V-159.9z"/>
	</g>
	<g>
		<path class="st0" d="M197.9-76.3v-1.5h4.8v1.5c0,3.5,2.1,5.7,5.4,5.7c3.2,0,5.4-2.3,5.4-5.7v-3.4c0-3.5-2.2-5.7-5.4-5.7
			c-6.1,0-10.2-4.2-10.2-10.5v-3.8c0-6.3,4-10.5,10.2-10.5c6.1,0,10.2,4.2,10.2,10.5v1.5h-4.8v-1.5c0-3.5-2.2-5.7-5.4-5.7
			c-3.3,0-5.4,2.3-5.4,5.7v3.8c0,3.4,2.1,5.7,5.4,5.7c6.1,0,10.2,4.2,10.2,10.5v3.4c0,6.3-4,10.5-10.2,10.5
			C201.9-65.8,197.9-70,197.9-76.3z"/>
		<path class="st0" d="M231.1-81.4v5.5c0,3.2,2,5.3,5.2,5.3c3.2,0,5.1-2.2,5.1-5.3v-0.8h4.6v0.6c0,6.1-3.9,10.1-9.7,10.1
			c-5.9,0-9.8-4-9.8-10.1v-12.1c0-6,4-10.1,9.8-10.1c5.8,0,9.7,4,9.7,10.1v6.9H231.1z M231.1-88.5v2.7h10.3v-2.7
			c0-3.2-1.9-5.3-5.1-5.3C233.1-93.8,231.1-91.6,231.1-88.5z"/>
		<path class="st0" d="M267-98v4.5h-2.5c-3.1,0-5,2-5,5.2v21.5h-4.6v-30.9h4.6v2.4c1.4-1.8,3.5-2.7,6.1-2.7H267z"/>
		<path class="st0" d="M292.6-97.7L284-66.7h-5.5l-8.7-30.9h4.9l6.5,24l6.5-24H292.6z"/>
		<path class="st0" d="M299.1-107.7h4.6v6.8h-4.6V-107.7z M299.1-97.7h4.6v30.9h-4.6V-97.7z"/>
		<path class="st0" d="M332.3-76.2c0,6.1-3.9,10.1-9.7,10.1c-5.9,0-9.8-4-9.8-10.1v-12.1c0-6,4-10.1,9.8-10.1c5.8,0,9.7,4,9.7,10.1
			v0.6h-4.6v-0.7c0-3.2-1.9-5.3-5.1-5.3c-3.2,0-5.2,2.2-5.2,5.3V-76c0,3.2,2,5.3,5.2,5.3c3.2,0,5.1-2.2,5.1-5.3v-0.8h4.6V-76.2z"/>
		<path class="st0" d="M344.1-81.4v5.5c0,3.2,2,5.3,5.2,5.3c3.2,0,5.1-2.2,5.1-5.3v-0.8h4.6v0.6c0,6.1-3.9,10.1-9.7,10.1
			c-5.9,0-9.8-4-9.8-10.1v-12.1c0-6,4-10.1,9.8-10.1c5.8,0,9.7,4,9.7,10.1v6.9H344.1z M344.1-88.5v2.7h10.3v-2.7
			c0-3.2-1.9-5.3-5.1-5.3C346.1-93.8,344.1-91.6,344.1-88.5z"/>
		<path class="st0" d="M366.4-75.5v-1h4.6v1.2c0,2.8,2,4.7,5.1,4.7c3,0,4.9-1.9,4.9-4.7c0-2.8-1.9-4.8-4.9-4.8
			c-5.9,0-9.7-3.6-9.7-9.1c0-5.5,3.8-9.2,9.7-9.2c5.7,0,9.5,3.8,9.5,9.4v0.9H381v-1.1c0-2.8-1.9-4.7-4.9-4.7c-3.1,0-5.1,1.9-5.1,4.7
			c0,2.8,1.9,4.8,5.1,4.8c5.7,0,9.5,3.6,9.5,9.1c0,5.5-3.8,9.2-9.5,9.2C370.3-66.1,366.4-69.8,366.4-75.5z"/>
	</g>
</g>
<text transform="matrix(1 0 0 1 194.6131 -550.7456)" style="font-family:'Mohave-Regular'; font-size:56.8266px; letter-spacing:2;">Premier</text>
<text transform="matrix(1 0 0 1 194.6131 -502.2456)" style="font-family:'Mohave-Regular'; font-size:56.8266px; letter-spacing:2;">Commercial</text>
<text transform="matrix(1 0 0 1 194.6131 -451.7456)" style="font-family:'Mohave-Regular'; font-size:56.8266px; letter-spacing:2;">Services</text>
<path class="st0" d="M154.3-203c0,0-41-5.7-41,41.7C113.3-161.3,157.2-159.2,154.3-203z"/>
<path class="st0" d="M28-203c0,0,41-5.7,41,41.7C69-161.3,25.1-159.2,28-203z"/>
<path class="st0" d="M180.5-139.4c0,0-25-33-58.5,0.5C122-138.9,151.5-106.4,180.5-139.4z"/>
<path class="st0" d="M58.5-139.4c0,0-25-33-58.5,0.5C0-138.9,29.5-106.4,58.5-139.4z"/>
<path class="st0" d="M90.6-229c0,0-33,25,0.5,58.5C91.1-170.5,123.6-200,90.6-229z"/>
<path class="st0" d="M154.3-75.3c0,0-41,5.7-41-41.7C113.3-117,157.2-119.1,154.3-75.3z"/>
<path class="st0" d="M28-75.3c0,0,41,5.7,41-41.7C69-117,25.1-119.1,28-75.3z"/>
<path class="st0" d="M90.6-49.3c0,0-33-25,0.5-58.5C91.1-107.8,123.6-78.3,90.6-49.3z"/>
<path class="st0" d="M154.3,26c0,0-41-5.7-41,41.7C113.3,67.7,157.2,69.8,154.3,26z"/>
<path class="st0" d="M28,26c0,0,41-5.7,41,41.7C69,67.7,25.1,69.8,28,26z"/>
<path class="st0" d="M180.5,89.6c0,0-25-33-58.5,0.5C122,90.1,151.5,122.6,180.5,89.6z"/>
<path class="st0" d="M58.5,89.6c0,0-25-33-58.5,0.5C0,90.1,29.5,122.6,58.5,89.6z"/>
<path class="st0" d="M90.6,0c0,0-33,25,0.5,58.5C91.1,58.5,123.6,29,90.6,0z"/>
<path class="st0" d="M154.3,153.7c0,0-41,5.7-41-41.7C113.3,112,157.2,109.9,154.3,153.7z"/>
<path class="st0" d="M28,153.7c0,0,41,5.7,41-41.7C69,112,25.1,109.9,28,153.7z"/>
<path class="st0" d="M90.6,179.7c0,0-33-25,0.5-58.5C91.1,121.2,123.6,150.7,90.6,179.7z"/>
</svg>
