<?xml version="1.0" encoding="utf-8"?>
<!-- Generator: Adobe Illustrator 19.2.0, SVG Export Plug-In . SVG Version: 6.00 Build 0)  -->
<svg version="1.1" id="Layer_1" xmlns="http://www.w3.org/2000/svg" xmlns:xlink="http://www.w3.org/1999/xlink" x="0px" y="0px"
	 viewBox="0 0 461.7 179.7" style="enable-background:new 0 0 461.7 179.7;" xml:space="preserve">
<style type="text/css">
	.st0{fill:#E8C10D;}
</style>
<g>
	<g>
		<path class="st0" d="M199.5,20.6H210c5.7,0,9.4,3.9,9.4,9.8v4.8c0,5.9-3.8,9.8-9.4,9.8h-5.7v18.2h-4.8V20.6z M210,40.2
			c2.8,0,4.7-2,4.7-5.1v-4.8c0-3-1.8-5-4.7-5h-5.7v14.8H210z"/>
		<path class="st0" d="M239.7,32v4.5h-2.5c-3.1,0-5,2-5,5.2v21.5h-4.6V32.3h4.6v2.4c1.4-1.8,3.5-2.7,6.1-2.7H239.7z"/>
		<path class="st0" d="M249.6,48.6V54c0,3.2,2,5.3,5.2,5.3c3.2,0,5.1-2.2,5.1-5.3v-0.8h4.6v0.6c0,6.1-3.9,10.1-9.7,10.1
			c-5.9,0-9.8-4-9.8-10.1V41.7c0-6,4-10.1,9.8-10.1c5.8,0,9.7,4,9.7,10.1v6.9H249.6z M249.6,41.5v2.7h10.3v-2.7
			c0-3.2-1.9-5.3-5.1-5.3C251.6,36.2,249.6,38.4,249.6,41.5z"/>
		<path class="st0" d="M307.1,40.9v22.3h-4.5V41.5c0-3.2-2-5.3-5-5.3c-3.1,0-5.1,2.2-5.1,5.3v21.7H288V41.5c0-3.2-1.9-5.3-5-5.3
			c-3.1,0-5,2.2-5,5.3v21.7h-4.6V32.3h4.6v2c1.4-1.8,3.5-2.7,6.1-2.7c3.2,0,6,1.4,7.4,4.4c1.4-2.7,3.8-4.4,7.2-4.4
			C303.5,31.7,307.1,34.8,307.1,40.9z"/>
		<path class="st0" d="M316.8,22.3h4.6v6.8h-4.6V22.3z M316.8,32.3h4.6v30.9h-4.6V32.3z"/>
		<path class="st0" d="M335,48.6V54c0,3.2,2,5.3,5.2,5.3c3.2,0,5.1-2.2,5.1-5.3v-0.8h4.6v0.6c0,6.1-3.9,10.1-9.7,10.1
			c-5.9,0-9.8-4-9.8-10.1V41.7c0-6,4-10.1,9.8-10.1c5.8,0,9.7,4,9.7,10.1v6.9H335z M335,41.5v2.7h10.3v-2.7c0-3.2-1.9-5.3-5.1-5.3
			C337,36.2,335,38.4,335,41.5z"/>
		<path class="st0" d="M370.9,32v4.5h-2.5c-3.1,0-5,2-5,5.2v21.5h-4.6V32.3h4.6v2.4c1.4-1.8,3.5-2.7,6.1-2.7H370.9z"/>
	</g>
	<g>
		<path class="st0" d="M219.2,102.2c0,6.3-4,10.5-10.2,10.5c-6.1,0-10.1-4.2-10.1-10.5V78.7c0-6.3,4-10.5,10.1-10.5
			c6.1,0,10.2,4.2,10.2,10.5v1.5h-4.8v-1.5c0-3.5-2.1-5.7-5.4-5.7c-3.2,0-5.3,2.3-5.3,5.7v23.4c0,3.5,2.1,5.7,5.3,5.7
			c3.3,0,5.4-2.3,5.4-5.7v-1.5h4.8V102.2z"/>
		<path class="st0" d="M226.8,102.3V90.2c0-6,4-10.1,9.8-10.1c5.8,0,9.7,4,9.7,10.1v12.1c0,6.1-3.9,10.1-9.7,10.1
			C230.8,112.4,226.8,108.4,226.8,102.3z M241.7,102.5V90c0-3.2-1.9-5.3-5.1-5.3c-3.2,0-5.2,2.2-5.2,5.3v12.5c0,3.2,2,5.3,5.2,5.3
			C239.8,107.9,241.7,105.7,241.7,102.5z"/>
		<path class="st0" d="M289.2,89.4v22.3h-4.5V90c0-3.2-2-5.3-5-5.3c-3.1,0-5.1,2.2-5.1,5.3v21.7H270V90c0-3.2-1.9-5.3-5-5.3
			c-3.1,0-5,2.2-5,5.3v21.7h-4.6V80.8h4.6v2c1.4-1.8,3.5-2.7,6.1-2.7c3.2,0,6,1.4,7.4,4.4c1.4-2.7,3.8-4.4,7.2-4.4
			C285.5,80.2,289.2,83.3,289.2,89.4z"/>
		<path class="st0" d="M332.6,89.4v22.3H328V90c0-3.2-2-5.3-5-5.3c-3.1,0-5.1,2.2-5.1,5.3v21.7h-4.5V90c0-3.2-1.9-5.3-5-5.3
			s-5,2.2-5,5.3v21.7h-4.6V80.8h4.6v2c1.4-1.8,3.5-2.7,6.1-2.7c3.2,0,6,1.4,7.4,4.4c1.4-2.7,3.8-4.4,7.2-4.4
			C328.9,80.2,332.6,83.3,332.6,89.4z"/>
		<path class="st0" d="M345.9,97.1v5.5c0,3.2,2,5.3,5.2,5.3c3.2,0,5.1-2.2,5.1-5.3v-0.8h4.6v0.6c0,6.1-3.9,10.1-9.7,10.1
			c-5.9,0-9.8-4-9.8-10.1V90.2c0-6,4-10.1,9.8-10.1c5.8,0,9.7,4,9.7,10.1v6.9H345.9z M345.9,90v2.7h10.3V90c0-3.2-1.9-5.3-5.1-5.3
			C347.9,84.7,345.9,86.9,345.9,90z"/>
		<path class="st0" d="M381.9,80.5V85h-2.5c-3.1,0-5,2-5,5.2v21.5h-4.6V80.8h4.6v2.4c1.4-1.8,3.5-2.7,6.1-2.7H381.9z"/>
		<path class="st0" d="M406.7,102.3c0,6.1-3.9,10.1-9.7,10.1c-5.9,0-9.8-4-9.8-10.1V90.2c0-6,4-10.1,9.8-10.1c5.8,0,9.7,4,9.7,10.1
			v0.6h-4.6V90c0-3.2-1.9-5.3-5.1-5.3c-3.2,0-5.2,2.2-5.2,5.3v12.5c0,3.2,2,5.3,5.2,5.3c3.2,0,5.1-2.2,5.1-5.3v-0.8h4.6V102.3z"/>
		<path class="st0" d="M414.8,70.8h4.6v6.8h-4.6V70.8z M414.8,80.8h4.6v30.9h-4.6V80.8z"/>
		<path class="st0" d="M447.6,90.2v21.5h-4.5v-2.2c-1.5,1.9-3.8,2.9-6.8,2.9c-5.6,0-8.8-3.5-8.8-8.4c0-4.4,2.7-6.5,5.5-7.7
			c4.4-1.9,10.1-1.8,10.1-5.7V90c0-3.2-2-5.3-5.3-5.3c-3.2,0-5.1,2.2-5.1,5.3v1h-4.6v-0.8c0-6,3.9-10.1,9.7-10.1
			C443.6,80.2,447.6,84.2,447.6,90.2z M443.1,102.3V97c-2.2,1.4-5,1.6-7.3,2.4c-2.1,0.7-3.7,1.9-3.7,4.3c0,2.6,1.9,4.4,5.2,4.4
			C440.9,108.1,443.1,106,443.1,102.3z"/>
		<path class="st0" d="M457.1,69.1h4.6v42.6h-4.6V69.1z"/>
	</g>
	<g>
		<path class="st0" d="M197.9,152.7v-1.5h4.8v1.5c0,3.5,2.1,5.7,5.4,5.7c3.2,0,5.4-2.3,5.4-5.7v-3.4c0-3.5-2.2-5.7-5.4-5.7
			c-6.1,0-10.2-4.2-10.2-10.5v-3.8c0-6.3,4-10.5,10.2-10.5c6.1,0,10.2,4.2,10.2,10.5v1.5h-4.8v-1.5c0-3.5-2.2-5.7-5.4-5.7
			c-3.3,0-5.4,2.3-5.4,5.7v3.8c0,3.4,2.1,5.7,5.4,5.7c6.1,0,10.2,4.2,10.2,10.5v3.4c0,6.3-4,10.5-10.2,10.5
			C201.9,163.2,197.9,159,197.9,152.7z"/>
		<path class="st0" d="M231.1,147.6v5.5c0,3.2,2,5.3,5.2,5.3c3.2,0,5.1-2.2,5.1-5.3v-0.8h4.6v0.6c0,6.1-3.9,10.1-9.7,10.1
			c-5.9,0-9.8-4-9.8-10.1v-12.1c0-6,4-10.1,9.8-10.1c5.8,0,9.7,4,9.7,10.1v6.9H231.1z M231.1,140.5v2.7h10.3v-2.7
			c0-3.2-1.9-5.3-5.1-5.3C233.1,135.2,231.1,137.4,231.1,140.5z"/>
		<path class="st0" d="M267,131v4.5h-2.5c-3.1,0-5,2-5,5.2v21.5h-4.6v-30.9h4.6v2.4c1.4-1.8,3.5-2.7,6.1-2.7H267z"/>
		<path class="st0" d="M292.6,131.3l-8.6,30.9h-5.5l-8.7-30.9h4.9l6.5,24l6.5-24H292.6z"/>
		<path class="st0" d="M299.1,121.3h4.6v6.8h-4.6V121.3z M299.1,131.3h4.6v30.9h-4.6V131.3z"/>
		<path class="st0" d="M332.3,152.8c0,6.1-3.9,10.1-9.7,10.1c-5.9,0-9.8-4-9.8-10.1v-12.1c0-6,4-10.1,9.8-10.1c5.8,0,9.7,4,9.7,10.1
			v0.6h-4.6v-0.7c0-3.2-1.9-5.3-5.1-5.3c-3.2,0-5.2,2.2-5.2,5.3V153c0,3.2,2,5.3,5.2,5.3c3.2,0,5.1-2.2,5.1-5.3v-0.8h4.6V152.8z"/>
		<path class="st0" d="M344.1,147.6v5.5c0,3.2,2,5.3,5.2,5.3c3.2,0,5.1-2.2,5.1-5.3v-0.8h4.6v0.6c0,6.1-3.9,10.1-9.7,10.1
			c-5.9,0-9.8-4-9.8-10.1v-12.1c0-6,4-10.1,9.8-10.1c5.8,0,9.7,4,9.7,10.1v6.9H344.1z M344.1,140.5v2.7h10.3v-2.7
			c0-3.2-1.9-5.3-5.1-5.3C346.1,135.2,344.1,137.4,344.1,140.5z"/>
		<path class="st0" d="M366.4,153.5v-1h4.6v1.2c0,2.8,2,4.7,5.1,4.7c3,0,4.9-1.9,4.9-4.7c0-2.8-1.9-4.8-4.9-4.8
			c-5.9,0-9.7-3.6-9.7-9.1c0-5.5,3.8-9.2,9.7-9.2c5.7,0,9.5,3.8,9.5,9.4v0.9H381v-1.1c0-2.8-1.9-4.7-4.9-4.7c-3.1,0-5.1,1.9-5.1,4.7
			c0,2.8,1.9,4.8,5.1,4.8c5.7,0,9.5,3.6,9.5,9.1c0,5.5-3.8,9.2-9.5,9.2C370.3,162.9,366.4,159.2,366.4,153.5z"/>
	</g>
</g>
<path class="st0" d="M154.3,26c0,0-41-5.7-41,41.7C113.3,67.7,157.2,69.8,154.3,26z"/>
<path class="st0" d="M28,26c0,0,41-5.7,41,41.7C69,67.7,25.1,69.8,28,26z"/>
<path class="st0" d="M180.5,89.6c0,0-25-33-58.5,0.5C122,90.1,151.5,122.6,180.5,89.6z"/>
<path class="st0" d="M58.5,89.6c0,0-25-33-58.5,0.5C0,90.1,29.5,122.6,58.5,89.6z"/>
<path class="st0" d="M90.6,0c0,0-33,25,0.5,58.5C91.1,58.5,123.6,29,90.6,0z"/>
<path class="st0" d="M154.3,153.7c0,0-41,5.7-41-41.7C113.3,112,157.2,109.9,154.3,153.7z"/>
<path class="st0" d="M28,153.7c0,0,41,5.7,41-41.7C69,112,25.1,109.9,28,153.7z"/>
<path class="st0" d="M90.6,179.7c0,0-33-25,0.5-58.5C91.1,121.2,123.6,150.7,90.6,179.7z"/>
</svg>
