<?xml version="1.0" encoding="utf-8"?>
<!-- Generator: Adobe Illustrator 19.2.0, SVG Export Plug-In . SVG Version: 6.00 Build 0)  -->
<svg version="1.1" id="Layer_1" xmlns="http://www.w3.org/2000/svg" xmlns:xlink="http://www.w3.org/1999/xlink" x="0px" y="0px"
	 viewBox="0 0 518.1 179.7" style="enable-background:new 0 0 518.1 179.7;" xml:space="preserve">
<style type="text/css">
	.st0{fill:#E8C10D;}
</style>
<g>
	<path class="st0" d="M202.6,21.1H217c9.5,0,15.7,5,15.7,14v0.2c0,9.7-7,14.3-15.8,14.4h-4v11.7h-10.3V21.1z M216.5,41.2
		c3.6,0,5.8-2.1,5.8-5.5v-0.2c0-3.7-2.1-5.6-5.9-5.6h-3.6v11.3H216.5z"/>
	<path class="st0" d="M237.6,30.2h10.1v5.6c1.5-3.9,3.9-6.3,8.3-6.1v11.1h-0.7c-4.9,0-7.6,2.9-7.6,9.2v11.4h-10.1V30.2z"/>
	<path class="st0" d="M259.2,46.3v-0.6c0-9.4,5.9-16.1,14.1-16.1c9.2,0,13.8,7.1,13.8,16.7c0,0.4,0,2.1-0.1,2.9H269
		c0.7,3.3,3,5.1,6,5.1c2.5,0,4.5-1.2,6.4-2.9l4.8,5.8c-2.9,3.1-6.7,5.1-11.9,5.1C265.4,62.1,259.2,56,259.2,46.3z M277.7,43.4
		c-0.3-3.9-1.9-6-4.4-6c-2.4,0-4,2-4.4,6H277.7z"/>
	<path class="st0" d="M292.5,30.2h10.1v4.1c1.8-2.5,4.3-4.7,8.2-4.7c3.7,0,6.4,1.7,7.9,4.7c2.2-2.8,5-4.7,9-4.7
		c5.8,0,9.3,3.7,9.3,10.3v21.5h-10.1V43c0-2.8-1.3-4.4-3.5-4.4s-3.6,1.6-3.6,4.4v18.4h-10.1V43c0-2.8-1.4-4.4-3.5-4.4
		c-2.1,0-3.6,1.6-3.6,4.4v18.4h-10.1V30.2z"/>
	<path class="st0" d="M343.3,19.7h10.4v7.9h-10.4V19.7z M343.4,30.2h10.1v31.2h-10.1V30.2z"/>
	<path class="st0" d="M359.1,46.3v-0.6c0-9.4,5.9-16.1,14.1-16.1c9.2,0,13.8,7.1,13.8,16.7c0,0.4,0,2.1-0.1,2.9h-18.1
		c0.7,3.3,3,5.1,6,5.1c2.5,0,4.5-1.2,6.4-2.9l4.8,5.8c-2.9,3.1-6.7,5.1-11.9,5.1C365.4,62.1,359.1,56,359.1,46.3z M377.6,43.4
		c-0.3-3.9-1.9-6-4.4-6c-2.4,0-4,2-4.4,6H377.6z"/>
	<path class="st0" d="M392.4,30.2h10.1v5.6c1.5-3.9,3.9-6.3,8.3-6.1v11.1h-0.7c-4.9,0-7.6,2.9-7.6,9.2v11.4h-10.1V30.2z"/>
</g>
<g>
	<path class="st0" d="M201.4,90.8v-0.7c0-12.4,8.1-20.6,18.7-20.6c6.3,0,10.7,2.5,13.9,6.3l-6.7,7.1c-1.7-2.1-3.9-3.8-7.1-3.8
		c-4.7,0-8.2,4.2-8.2,11.1v0.2c0,7.2,3.6,11.2,8.2,11.2c3.5,0,5.5-1.8,7.4-4l6.6,6.7c-3.3,4-7.8,6.9-14.5,6.9
		C209.4,111.3,201.4,103.4,201.4,90.8z"/>
	<path class="st0" d="M237.4,95.5v-0.9c0-9.2,6.3-15.9,15.2-15.9c8.8,0,15.1,6.6,15.1,15.8v0.9c0,9.2-6.3,15.9-15.2,15.9
		C243.7,111.3,237.4,104.7,237.4,95.5z M257.7,95.3v-0.5c0-4.3-2.1-7.4-5.2-7.4c-3.3,0-5.2,3-5.2,7.3v0.5c0,4.3,2.1,7.4,5.2,7.4
		C255.8,102.6,257.7,99.6,257.7,95.3z"/>
	<path class="st0" d="M273,79.4h10.1v4.1c1.8-2.5,4.3-4.7,8.2-4.7c3.7,0,6.4,1.7,7.9,4.7c2.2-2.8,5-4.7,9-4.7
		c5.8,0,9.3,3.7,9.3,10.3v21.5h-10.1V92.1c0-2.8-1.3-4.4-3.5-4.4s-3.6,1.6-3.6,4.4v18.4h-10.1V92.1c0-2.8-1.4-4.4-3.5-4.4
		c-2.1,0-3.6,1.6-3.6,4.4v18.4H273V79.4z"/>
	<path class="st0" d="M323.7,79.4h10.1v4.1c1.8-2.5,4.3-4.7,8.2-4.7c3.7,0,6.4,1.7,7.9,4.7c2.2-2.8,5-4.7,9-4.7
		c5.8,0,9.3,3.7,9.3,10.3v21.5h-10.1V92.1c0-2.8-1.3-4.4-3.5-4.4s-3.6,1.6-3.6,4.4v18.4H341V92.1c0-2.8-1.4-4.4-3.5-4.4
		c-2.1,0-3.6,1.6-3.6,4.4v18.4h-10.1V79.4z"/>
	<path class="st0" d="M373.5,95.4v-0.6c0-9.4,5.9-16.1,14.1-16.1c9.2,0,13.8,7.1,13.8,16.7c0,0.4,0,2.1-0.1,2.9h-18.1
		c0.7,3.3,3,5.1,6,5.1c2.5,0,4.5-1.2,6.4-2.9l4.8,5.8c-2.9,3.1-6.7,5.1-11.9,5.1C379.7,111.3,373.5,105.2,373.5,95.4z M392,92.5
		c-0.3-3.9-1.9-6-4.4-6c-2.4,0-4,2-4.4,6H392z"/>
	<path class="st0" d="M406.8,79.4h10.1v5.6c1.5-3.9,3.9-6.3,8.3-6.1V90h-0.7c-4.9,0-7.6,2.9-7.6,9.2v11.4h-10.1V79.4z"/>
	<path class="st0" d="M428.4,95.5v-0.6c0-9.2,6.1-16.1,14.9-16.1c5,0,8.5,2,11.1,5.2l-5.9,6.3c-1.3-1.6-2.7-2.7-4.8-2.7
		c-3.2,0-5.3,3-5.3,7.2V95c0,4.5,2.1,7.4,5.4,7.4c2.1,0,3.5-1.1,4.9-2.7l5.8,5.9c-2.7,3.4-6.3,5.6-11.5,5.6
		C434.4,111.3,428.4,104.6,428.4,95.5z"/>
	<path class="st0" d="M459,68.9h10.4v7.9H459V68.9z M459.1,79.4h10.1v31.2h-10.1V79.4z"/>
	<path class="st0" d="M474.5,101.8v-0.4c0-6.7,4.3-9.9,10.7-9.9c2.5,0,4.8,0.5,6.5,1.2V92c0-3.2-1.8-4.8-5.4-4.8
		c-3,0-5.4,0.9-7.4,1.7l-2.3-7.5c3.1-1.4,6.8-2.4,11.4-2.4c4.8,0,8.3,1.2,10.5,3.5c2.2,2.2,3.2,5.3,3.2,9.5v18.7h-10v-3.2
		c-1.8,2.4-4.4,3.8-8,3.8C478.5,111.2,474.5,107.8,474.5,101.8z M491.7,100v-2.3c-0.9-0.4-2.2-0.7-3.5-0.7c-2.5,0-4,1.5-4,3.9v0.2
		c0,2.2,1.3,3.5,3.2,3.5C489.8,104.6,491.7,102.9,491.7,100z"/>
	<path class="st0" d="M508,68.9h10.1v41.7H508V68.9z"/>
</g>
<g>
	<path class="st0" d="M199.6,156.4l5.5-7.5c3.3,2.7,7,4.6,10.9,4.6c2.8,0,4.2-1.2,4.2-2.9v-0.1c0-1.6-1.2-2.6-5.9-4.3
		c-7.6-2.6-13-5.4-13-12.7v-0.2c0-7.3,5.6-12.4,14.4-12.4c5.4,0,10.2,1.5,14.4,4.9l-5.2,7.7c-2.8-2.1-6.1-3.7-9.4-3.7
		c-2.4,0-3.7,1.2-3.7,2.7v0.1c0,1.8,1.3,2.7,6.4,4.6c7.7,2.5,12.4,5.6,12.4,12.4v0.1c0,7.8-6,12.7-14.7,12.7
		C210.1,162.4,204.4,160.5,199.6,156.4z"/>
	<path class="st0" d="M235.1,146.6V146c0-9.4,5.9-16.1,14.1-16.1c9.2,0,13.8,7.1,13.8,16.7c0,0.4,0,2.1-0.1,2.9h-18.1
		c0.7,3.3,3,5.1,6,5.1c2.5,0,4.5-1.2,6.4-2.9l4.8,5.8c-2.9,3.1-6.7,5.1-11.9,5.1C241.4,162.5,235.1,156.4,235.1,146.6z M253.6,143.7
		c-0.3-3.9-1.9-6-4.4-6c-2.4,0-4,2-4.4,6H253.6z"/>
	<path class="st0" d="M268.4,130.6h10.1v5.6c1.5-3.9,3.9-6.3,8.3-6.1v11.1h-0.7c-4.9,0-7.6,2.9-7.6,9.2v11.4h-10.1V130.6z"/>
	<path class="st0" d="M289.5,130.6H300l5,18.3l5-18.3h10.4L309.6,162h-9.5L289.5,130.6z"/>
	<path class="st0" d="M324.7,120.1h10.4v7.9h-10.4V120.1z M324.8,130.6h10.1v31.2h-10.1V130.6z"/>
	<path class="st0" d="M340.6,146.7V146c0-9.2,6.1-16.1,14.9-16.1c5,0,8.5,2,11.1,5.2l-5.9,6.3c-1.3-1.6-2.7-2.7-4.8-2.7
		c-3.2,0-5.3,3-5.3,7.2v0.2c0,4.5,2.1,7.4,5.4,7.4c2.1,0,3.5-1.1,4.9-2.7l5.8,5.9c-2.7,3.4-6.3,5.6-11.5,5.6
		C346.5,162.5,340.6,155.8,340.6,146.7z"/>
	<path class="st0" d="M369.2,146.6V146c0-9.4,5.9-16.1,14.1-16.1c9.2,0,13.8,7.1,13.8,16.7c0,0.4,0,2.1-0.1,2.9H379
		c0.7,3.3,3,5.1,6,5.1c2.5,0,4.5-1.2,6.4-2.9l4.8,5.8c-2.9,3.1-6.7,5.1-11.9,5.1C375.5,162.5,369.2,156.4,369.2,146.6z M387.7,143.7
		c-0.3-3.9-1.9-6-4.4-6c-2.4,0-4,2-4.4,6H387.7z"/>
	<path class="st0" d="M400.3,158.2l3.8-6.7c3.1,2.1,6.3,3.4,9,3.4c1.7,0,2.5-0.7,2.5-1.7V153c0-1.2-1.4-1.8-4.6-3
		c-5.5-2-9.5-4.2-9.5-9.9v-0.1c0-6.3,4.8-10,11.6-10c3.9,0,8,1.1,11.4,3.3l-3.7,6.9c-2.5-1.6-5.4-2.7-7.7-2.7
		c-1.6,0-2.4,0.7-2.4,1.6v0.1c0,1.2,1.6,1.8,4.6,3.1c5.6,2.1,9.4,4.4,9.4,9.7v0.1c0,6.5-4.7,10.2-11.8,10.2
		C409,162.4,404.3,161.2,400.3,158.2z"/>
</g>
<g>
	<path class="st0" d="M154.3,26c0,0-41-5.7-41,41.7C113.3,67.7,157.2,69.8,154.3,26z"/>
	<path class="st0" d="M28,26c0,0,41-5.7,41,41.7C69,67.7,25.1,69.8,28,26z"/>
	<path class="st0" d="M180.5,89.6c0,0-25-33-58.5,0.5C122,90.1,151.5,122.6,180.5,89.6z"/>
	<path class="st0" d="M58.5,89.6c0,0-25-33-58.5,0.5C0,90.1,29.5,122.6,58.5,89.6z"/>
	<path class="st0" d="M90.6,0c0,0-33,25,0.5,58.5C91.1,58.5,123.6,29,90.6,0z"/>
	<path class="st0" d="M154.3,153.7c0,0-41,5.7-41-41.7C113.3,112,157.2,109.9,154.3,153.7z"/>
	<path class="st0" d="M28,153.7c0,0,41,5.7,41-41.7C69,112,25.1,109.9,28,153.7z"/>
	<path class="st0" d="M90.6,179.7c0,0-33-25,0.5-58.5C91.1,121.2,123.6,150.7,90.6,179.7z"/>
</g>
</svg>
