<?xml version="1.0" encoding="utf-8"?>
<!-- Generator: Adobe Illustrator 19.2.0, SVG Export Plug-In . SVG Version: 6.00 Build 0)  -->
<svg version="1.1" id="OBJECTS" xmlns="http://www.w3.org/2000/svg" xmlns:xlink="http://www.w3.org/1999/xlink" x="0px" y="0px"
	 viewBox="0 0 108 104.3" style="enable-background:new 0 0 108 104.3;" xml:space="preserve">
<style type="text/css">
	.st0{fill:#009FE4;}
	.st1{fill:#008FC1;}
	.st2{fill:#00AEEF;}
	.st3{fill:#E8C10D;}
	.st4{fill:#177BBD;}
	.st5{fill:#126DA0;}
	.st6{fill:#FFFFFF;}
</style>
<g>
	<g>
		<g>
			<g>
				<polygon class="st0" points="55.7,55.9 17.8,55.9 25.1,32.7 51.2,32.7 51.3,48.7 				"/>
			</g>
			<polygon class="st1" points="25.1,32.7 17.8,55.9 27.8,55.9 35.1,32.7 			"/>
			<g>
				<polygon class="st2" points="66.4,73.2 15.1,64.7 16.6,59.7 58.1,59.7 				"/>
			</g>
			<g>
				<path class="st3" d="M71.5,40l-2.2,2.2c-5.1-3.1-9-7.7-11.3-13.1c1.4-1.2,3.1-2.1,4.8-2.7l0.6,1.8c1.6,4.4,4.2,8.4,7.7,11.6
					L71.5,40z"/>
			</g>
			<g>
				<path class="st3" d="M76.3,11.8v6.6c0,0.6-0.5,1.2-1.2,1.2h-2.2v-8.9h2.2C75.8,10.6,76.3,11.1,76.3,11.8z"/>
			</g>
			<g>
				<path class="st0" d="M25,7.6c-0.9,0-1.8,0.5-2.3,1.2l-7.2,11.4c-0.5,0.9-0.6,1.9-0.1,2.8l9.4,9.7h26.4c1.2-2.4,2.9-4.6,4.9-6.2
					c1.5-1.2,3.3-2.2,5.1-2.9c1.7-0.6,3.5-1,5.4-1.1l0,0c1.7-0.1,2.9-1.5,2.9-3.2v-8.7c0-1.7-1.4-3.2-3.2-3.2H25z"/>
			</g>
			<path class="st1" d="M26.4,20.3l7.2-11.4C34.1,8,35,7.6,35.9,7.6H25c-0.9,0-1.8,0.5-2.3,1.2l-7.2,11.4c-0.5,0.9-0.6,1.9-0.1,2.8
				l9.4,9.7h10.9l-9.4-9.7C25.8,22.2,25.9,21.1,26.4,20.3z"/>
			<g>
				<path class="st4" d="M70.3,104.3H5.8c-3.5,0-6.2-3.1-5.7-6.6c1.4-8.7,4-17.1,7.8-25.1l7.6-12.9h42.6L64.6,70
					c5.3,8.4,9.1,17.6,11.3,27.2C76.7,100.8,74,104.3,70.3,104.3z"/>
			</g>
			<path class="st5" d="M13,97.7c1.4-8.7,4-17.1,7.8-25.1l7.6-12.9H15.6L7.9,72.6C4.1,80.5,1.4,89,0.1,97.7
				c-0.5,3.5,2.2,6.6,5.7,6.6h12.9C15.2,104.3,12.5,101.1,13,97.7z"/>
		</g>
		<g>
			<path class="st0" d="M85.4,8.3c-0.6,0-1.1-0.3-1.3-0.9C83.9,6.8,84.3,6,85,5.7l15.4-5.6c0.7-0.3,1.5,0.1,1.7,0.8
				c0.3,0.7-0.1,1.5-0.8,1.7L85.9,8.3C85.8,8.3,85.6,8.3,85.4,8.3z"/>
		</g>
		<g>
			<path class="st0" d="M100.8,29.2c-0.2,0-0.3,0-0.5-0.1L85,23.5c-0.7-0.3-1.1-1-0.8-1.7c0.3-0.7,1-1.1,1.7-0.8l15.4,5.6
				c0.7,0.3,1.1,1,0.8,1.7C101.9,28.9,101.4,29.2,100.8,29.2z"/>
		</g>
		<g>
			<path class="st0" d="M106.6,16.4H85.4c-0.8,0-1.4-0.6-1.4-1.4s0.6-1.4,1.4-1.4h21.2c0.8,0,1.4,0.6,1.4,1.4S107.4,16.4,106.6,16.4
				z"/>
		</g>
	</g>
	<g>
		<path class="st6" d="M68.6,100.9l-0.5-2c-1.8-7.4-4.5-14.6-8.2-21.3l-6.7-12.4l1.8-1l6.7,12.4c3.7,6.9,6.5,14.2,8.4,21.8l0.5,2
			L68.6,100.9z"/>
	</g>
	<g>
		<rect x="27.8" y="9.6" class="st6" width="36.9" height="2"/>
	</g>
</g>
<g>
	
		<image style="overflow:visible;opacity:0.6;" width="173" height="172" xlink:href="DE92D317FDB8084E.png"  transform="matrix(0.24 0 0 0.24 18.3078 64.1992)">
	</image>
	<g>
		<g>
			<path class="st3" d="M50.9,72.5c0,0-7.8-1.1-7.8,7.9C43.1,80.4,51.4,80.8,50.9,72.5z"/>
			<path class="st3" d="M27,72.5c0,0,7.8-1.1,7.8,7.9C34.7,80.4,26.5,80.8,27,72.5z"/>
			<path class="st3" d="M55.8,84.5c0,0-4.7-6.2-11.1,0.1C44.8,84.6,50.4,90.8,55.8,84.5z"/>
			<path class="st3" d="M32.8,84.5c0,0-4.7-6.2-11.1,0.1C21.7,84.6,27.3,90.8,32.8,84.5z"/>
			<path class="st3" d="M38.8,67.6c0,0-6.2,4.7,0.1,11.1C38.9,78.7,45.1,73.1,38.8,67.6z"/>
			<path class="st3" d="M50.9,96.7c0,0-7.8,1.1-7.8-7.9C43.1,88.8,51.4,88.4,50.9,96.7z"/>
			<path class="st3" d="M27,96.7c0,0,7.8,1.1,7.8-7.9C34.7,88.8,26.5,88.4,27,96.7z"/>
			<path class="st3" d="M38.8,101.6c0,0-6.2-4.7,0.1-11.1C38.9,90.5,45.1,96.1,38.8,101.6z"/>
		</g>
	</g>
</g>
</svg>
