<?xml version="1.0" encoding="utf-8"?>
<!-- Generator: Adobe Illustrator 19.2.0, SVG Export Plug-In . SVG Version: 6.00 Build 0)  -->
<svg version="1.1" id="Layer_1" xmlns="http://www.w3.org/2000/svg" xmlns:xlink="http://www.w3.org/1999/xlink" x="0px" y="0px"
	 viewBox="0 0 50 50" style="enable-background:new 0 0 50 50;" xml:space="preserve">
<style type="text/css">
	.st0{fill:#FFFFFF;}
</style>
<g>
	<g>
		<path class="st0" d="M46.4,36.1l1.3-9.6c-1.3,0.5-3,1-5.1,1.3c-4.8,0.9-11.3,1.4-18.1,1.4s-13.3-0.5-18.1-1.4
			c-2.1-0.4-3.8-0.8-5-1.3l1.3,9.6C2.8,36.4,3,36.8,3.3,37C5,38.5,8.7,40.2,16,41v-7.9c0-0.7,0.6-1.4,1.4-1.4h14.3
			c0.7,0,1.4,0.6,1.4,1.4V41c7.4-0.8,11.1-2.5,12.9-4C46.2,36.8,46.4,36.4,46.4,36.1z"/>
		<path class="st0" d="M48.8,18.6c-0.2,0.1-0.3,0.2-0.5,0.2c-1.3,0.6-3.2,1.1-5.6,1.6c-4.8,0.9-11.3,1.4-18.1,1.4
			s-13.3-0.5-18.1-1.4c-2.4-0.5-4.3-1-5.6-1.6c-0.2-0.1-0.3-0.2-0.5-0.2l0.8,6c0.1,0,0.2,0.1,0.3,0.2c1.2,0.5,3,1,5.3,1.5
			c4.7,0.9,11.1,1.4,17.8,1.4s13-0.5,17.8-1.4c2.2-0.4,4.1-0.9,5.3-1.5c0.1-0.1,0.2-0.1,0.4-0.2L48.8,18.6z"/>
		<path class="st0" d="M1.5,17.4c1.2,0.5,3,1,5.3,1.5l0,0c0.1,0,0.1-0.1,0.2-0.1c4-0.9,10.5-1.5,17.5-1.5c7.1,0,13.7,0.6,17.7,1.5
			c0,0,0.1,0,0.1,0.1c0,0,0,0,0,0c2.2-0.4,4.1-0.9,5.3-1.5c1-0.4,1.4-0.8,1.5-1c0-0.1,0-0.1,0-0.1c0-0.1-0.3-0.6-1.5-1.1
			c-0.5-0.2-1.2-0.5-1.9-0.7v-0.8v-0.8v-1.1l4.1-2.5c0.3-0.2,0.3-0.4,0-0.6L45.2,6C45.1,6,45,6,44.9,6c-0.5,0-0.8,0.4-0.8,0.8v5.6
			v0.8v0.8c-0.5-0.1-1.1-0.2-1.7-0.4c-4.5-0.9-10.5-1.3-16.9-1.4v-0.8v-0.8V9.9l4.1-2.5c0.3-0.2,0.3-0.4,0-0.6L25,4.2
			c-0.1,0-0.2-0.1-0.3-0.1c-0.5,0-0.8,0.4-0.8,0.8v5.8v0.8v0.8c-6.4,0-12.5,0.5-17,1.4c-0.5,0.1-1.1,0.2-1.6,0.3v-0.8v-0.8v-0.6
			l4.1-2.5c0.3-0.2,0.3-0.4,0-0.6L4.7,6C4.6,6,4.5,6,4.4,6C3.9,6,3.6,6.3,3.6,6.8v6v0.8v0.8c-0.8,0.2-1.5,0.5-2.1,0.7
			c-1.2,0.5-1.5,1-1.5,1.1c0,0,0,0.1,0,0.1C0.2,16.6,0.5,17,1.5,17.4z"/>
		<path class="st0" d="M38.7,19.4c-3.8-0.6-8.9-0.9-14.2-0.9c-5.3,0-10.4,0.3-14.2,0.9c4.1,0.5,9.1,0.8,14.2,0.8
			C29.7,20.2,34.6,20,38.7,19.4z"/>
		<path class="st0" d="M17.7,33.3v7.8v1.6L16.9,43l-0.8,0.3l-1,0.3c-0.3,0.1-0.5,0.4-0.5,0.7v1c0,0.3,0.2,0.5,0.5,0.5h19.1
			c0.3,0,0.5-0.2,0.5-0.5v-1c0-0.3-0.2-0.6-0.5-0.7l-1-0.3L32.3,43l-0.8-0.3v-1.6v-7.8h-2v7h-9.8v-7H17.7z"/>
	</g>
</g>
</svg>
