<?xml version="1.0" encoding="utf-8"?>
<!-- Generator: Adobe Illustrator 19.2.0, SVG Export Plug-In . SVG Version: 6.00 Build 0)  -->
<svg version="1.1" id="Layer_1" xmlns="http://www.w3.org/2000/svg" xmlns:xlink="http://www.w3.org/1999/xlink" x="0px" y="0px"
	 viewBox="0 0 50 50" style="enable-background:new 0 0 50 50;" xml:space="preserve">
<style type="text/css">
	.st0{fill:#E8C10D;}
</style>
<g>
	<path class="st0" d="M42.9,25H50v-3.6h-9L42.9,25z"/>
	<path class="st0" d="M17,18.8v0.9h8.4c0.2-0.8,0.6-1.5,1-2.2c-0.4-1.3-1.2-2.5-2.3-3.4c-2.1-1.7-5-2.1-7.4-1c0.2,0.7,0.3,1.4,0.3,2
		c0,0.7-0.2,1.3-0.7,1.8C16.7,17.5,17,18.1,17,18.8L17,18.8z"/>
	<path class="st0" d="M38.4,16.8c-2.6-2.1-6.4-2.1-9,0c-0.9,0.8-1.7,1.8-2.1,2.9h13.2C40.1,18.5,39.4,17.5,38.4,16.8z"/>
	<path class="st0" d="M27.7,15.9c0.2-0.2,0.4-0.3,0.6-0.5c3.8-3.1,9.5-2.5,12.6,1.3c0.7,0.9,1.2,1.9,1.6,2.9h2.2
		c2,0,3.6-1.6,3.6-3.6s-1.6-3.6-3.6-3.6c-0.3,0-0.5,0-0.8,0.1c-0.5,0.1-1-0.2-1.1-0.7c-0.1-0.3,0-0.5,0.2-0.8
		c0.5-0.6,0.8-1.4,0.8-2.2c0-2-1.6-3.6-3.6-3.6c-1,0-2,0.4-2.6,1.2c-0.3,0.4-0.9,0.4-1.3,0.1c-0.1-0.1-0.1-0.2-0.2-0.2
		c-0.9-1.7-2.8-2.8-4.8-2.8c-2.4,0-4.4,1.4-5.1,3.5C26,7.5,25.5,7.8,25,7.6c0,0-0.1,0-0.1-0.1c-0.5-0.3-1.1-0.4-1.7-0.4
		c-2,0-3.6,1.6-3.6,3.6C23.1,10.7,26.3,12.7,27.7,15.9L27.7,15.9z"/>
	<path class="st0" d="M49.2,26.8h-5.3l4.3,7.9L49.2,26.8z"/>
	<path class="st0" d="M13.6,22.4c0.4,0.2,0.6,0.8,0.4,1.2L13.2,25h23.6L36,23.6c-0.2-0.4-0.1-1,0.4-1.2l1.7-0.9H11.8L13.6,22.4z"/>
	<path class="st0" d="M12.5,2.7c0-0.5-0.4-0.9-0.9-0.9H6.2c-0.5,0-0.9,0.4-0.9,0.9v0.9h7.1V2.7H12.5z"/>
	<path class="st0" d="M15.2,18.8c0-0.5-0.4-0.9-0.9-0.9H3.6c-0.5,0-0.9,0.4-0.9,0.9v0.9h12.5V18.8z"/>
	<path class="st0" d="M9,21.4H0V25h7.1L9,21.4z"/>
	<path class="st0" d="M6,8.9h5.9c-0.6-1.1-1-2.3-1.1-3.6H7.1C7,6.6,6.6,7.8,6,8.9z"/>
	<path class="st0" d="M6.1,26.8H0.8l1,8L6.1,26.8z"/>
	<path class="st0" d="M40.2,31.2v4.6c0,0.5-0.4,0.9-0.9,0.9s-0.9-0.4-0.9-0.9v-5.4c0-0.5,0.4-0.9,0.9-0.9l-1.5-2.7H12.2l-1.5,2.7
		c0.5,0,0.8,0.4,0.8,0.9v5.4c0,0.5-0.4,0.9-0.9,0.9s-0.9-0.4-0.9-0.9v-4.5L3.2,43.2c-0.1,0.2-0.2,0.3-0.3,0.5l0.4,3
		c0.1,0.8,0.9,1.4,1.8,1.4H45c0.9,0,1.7-0.6,1.8-1.4l0.4-3.1c-0.1-0.1-0.2-0.3-0.3-0.5L40.2,31.2z M8,44.6c0,0.5-0.4,0.9-0.9,0.9
		s-0.9-0.4-0.9-0.9v-5.4c0-0.5,0.4-0.9,0.9-0.9s0.9,0.5,0.9,1V44.6z M11.6,44.6c0,0.5-0.4,0.9-0.9,0.9s-0.9-0.4-0.9-0.9v-5.4
		c0-0.5,0.4-0.9,0.9-0.9s0.9,0.4,0.9,0.9V44.6z M15.2,44.6c0,0.5-0.4,0.9-0.9,0.9s-0.9-0.4-0.9-0.9v-5.4c0-0.5,0.4-0.9,0.9-0.9
		s0.9,0.4,0.9,0.9V44.6z M15.2,35.7c0,0.5-0.4,0.9-0.9,0.9s-0.9-0.4-0.9-0.9v-5.4c0-0.5,0.4-0.9,0.9-0.9s0.9,0.4,0.9,0.9V35.7z
		 M18.8,44.6c0,0.5-0.4,0.9-0.9,0.9S17,45.1,17,44.6v-5.4c0-0.5,0.4-0.9,0.9-0.9s0.9,0.4,0.9,0.9V44.6z M18.8,35.7
		c0,0.5-0.4,0.9-0.9,0.9S17,36.2,17,35.7v-5.4c0-0.5,0.4-0.9,0.9-0.9s0.9,0.4,0.9,0.9V35.7z M22.3,44.6c0,0.5-0.4,0.9-0.9,0.9
		s-0.9-0.4-0.9-0.9v-5.4c0-0.5,0.4-0.9,0.9-0.9s0.9,0.4,0.9,0.9V44.6z M22.3,35.7c0,0.5-0.4,0.9-0.9,0.9s-0.9-0.4-0.9-0.9v-5.4
		c0-0.5,0.4-0.9,0.9-0.9s0.9,0.4,0.9,0.9V35.7z M25.9,44.6c0,0.5-0.4,0.9-0.9,0.9s-0.9-0.4-0.9-0.9v-5.4c0-0.5,0.4-0.9,0.9-0.9
		s0.9,0.4,0.9,0.9V44.6z M25.9,35.7c0,0.5-0.4,0.9-0.9,0.9s-0.9-0.4-0.9-0.9v-5.4c0-0.5,0.4-0.9,0.9-0.9s0.9,0.4,0.9,0.9V35.7z
		 M29.5,44.6c0,0.5-0.4,0.9-0.9,0.9s-0.9-0.4-0.9-0.9v-5.4c0-0.5,0.4-0.9,0.9-0.9s0.9,0.4,0.9,0.9V44.6z M29.5,35.7
		c0,0.5-0.4,0.9-0.9,0.9s-0.9-0.4-0.9-0.9v-5.4c0-0.5,0.4-0.9,0.9-0.9s0.9,0.4,0.9,0.9V35.7z M33,44.6c0,0.5-0.4,0.9-0.9,0.9
		s-0.9-0.4-0.9-0.9v-5.4c0-0.5,0.4-0.9,0.9-0.9s0.9,0.4,0.9,0.9V44.6z M33,35.7c0,0.5-0.4,0.9-0.9,0.9s-0.9-0.4-0.9-0.9v-5.4
		c0-0.5,0.4-0.9,0.9-0.9s0.9,0.4,0.9,0.9V35.7z M36.6,44.6c0,0.5-0.4,0.9-0.9,0.9s-0.9-0.4-0.9-0.9v-5.4c0-0.5,0.4-0.9,0.9-0.9
		s0.9,0.4,0.9,0.9V44.6z M36.6,35.7c0,0.5-0.4,0.9-0.9,0.9s-0.9-0.4-0.9-0.9v-5.4c0-0.5,0.4-0.9,0.9-0.9s0.9,0.4,0.9,0.9V35.7z
		 M40.2,44.6c0,0.5-0.4,0.9-0.9,0.9s-0.9-0.4-0.9-0.9v-5.4c0-0.5,0.4-0.9,0.9-0.9s0.9,0.4,0.9,0.9V44.6z M43.8,44.6
		c0,0.5-0.4,0.9-0.9,0.9S42,45.1,42,44.6v-5.4c0-0.5,0.4-0.9,0.9-0.9s0.9,0.4,0.9,0.9C43.8,39.2,43.8,44.6,43.8,44.6z"/>
	<path class="st0" d="M39.6,22.6L38,23.5l10.3,18.9c0.2,0.3,0.5,0.5,0.8,0.5c0.5,0,0.9-0.4,0.9-0.9c0-0.1,0-0.3-0.1-0.4L39.6,22.6z"
		/>
	<path class="st0" d="M10.4,22.7L0.1,41.5c-0.2,0.4-0.1,1,0.4,1.2c0.1,0.1,0.3,0.1,0.4,0.1c0.3,0,0.6-0.2,0.8-0.5L12,23.5L10.4,22.7
		z"/>
	<path class="st0" d="M3.6,16.1h10.7c0.5,0,0.9-0.4,0.9-0.9c0-1.7-0.7-3.3-1.9-4.5H4.6c-1.2,1.2-1.9,2.8-1.9,4.5
		C2.7,15.7,3.1,16.1,3.6,16.1z"/>
</g>
</svg>
