<?xml version="1.0" encoding="utf-8"?>
<!-- Generator: Adobe Illustrator 19.2.0, SVG Export Plug-In . SVG Version: 6.00 Build 0)  -->
<svg version="1.1" id="Layer_1" xmlns="http://www.w3.org/2000/svg" xmlns:xlink="http://www.w3.org/1999/xlink" x="0px" y="0px"
	 viewBox="0 0 50 50" style="enable-background:new 0 0 50 50;" xml:space="preserve">
<style type="text/css">
	.st0{fill:#FFFFFF;}
</style>
<g>
	<polygon class="st0" points="40.7,17.4 34.1,17.4 34.1,25 26.5,25 26.5,31.6 34.1,31.6 34.1,39.2 40.7,39.2 40.7,31.6 48.3,31.6 
		48.3,25 40.7,25 	"/>
	<path class="st0" d="M23.2,21.7h7.6v-7.6H44v7.6h3.8c1.4-2.2,2.2-4.7,2.2-7.4c0-7.6-6.2-13.8-13.8-13.8c-4.6,0-8.7,2.3-11.2,5.8
		c-2.5-3.5-6.6-5.8-11.2-5.8C6.2,0.5,0,6.7,0,14.3c0,3.3,1.2,6.3,3.1,8.7L25,49.5l5.8-7.1v-7.6h-7.6V21.7z"/>
</g>
</svg>
