<?xml version="1.0" encoding="utf-8"?>
<!-- Generator: Adobe Illustrator 19.2.0, SVG Export Plug-In . SVG Version: 6.00 Build 0)  -->
<svg version="1.1" id="Layer_1" xmlns="http://www.w3.org/2000/svg" xmlns:xlink="http://www.w3.org/1999/xlink" x="0px" y="0px"
	 viewBox="0 0 50 50" style="enable-background:new 0 0 50 50;" xml:space="preserve">
<style type="text/css">
	.st0{fill:#177BBD;}
</style>
<g>
	<g>
		<path class="st0" d="M13.5,45.2h8.8v-9h5.3v9h8.8V4.8h-23v40.4H13.5z M26.6,9.5h5.3v5.3h-5.3C26.6,14.8,26.6,9.5,26.6,9.5z
			 M26.6,18.1h5.3v5.3h-5.3C26.6,23.4,26.6,18.1,26.6,18.1z M26.6,26.6h5.3v5.3h-5.3C26.6,31.9,26.6,26.6,26.6,26.6z M18.1,9.5h5.3
			v5.3h-5.3C18.1,14.8,18.1,9.5,18.1,9.5z M18.1,18.1h5.3v5.3h-5.3C18.1,23.4,18.1,18.1,18.1,18.1z M18.1,26.6h5.3v5.3h-5.3
			C18.1,31.9,18.1,26.6,18.1,26.6z"/>
		<path class="st0" d="M38.5,8.4V37H42v8.2h8V8.4H38.5z M45.8,33.1H41v-4.8h4.8V33.1L45.8,33.1z M45.8,25.3H41v-4.8h4.8V25.3
			L45.8,25.3z M45.8,17.6H41v-4.8h4.8V17.6L45.8,17.6z"/>
		<path class="st0" d="M0,45.2h8V37h3.4V8.4H0V45.2z M4.2,12.7H9v4.8H4.2V12.7z M4.2,20.5H9v4.8H4.2V20.5z M4.2,28.3H9v4.8H4.2V28.3
			z"/>
	</g>
</g>
</svg>
