<?xml version="1.0" encoding="utf-8"?>
<!-- Generator: Adobe Illustrator 19.2.0, SVG Export Plug-In . SVG Version: 6.00 Build 0)  -->
<svg version="1.1" id="Layer_1" xmlns="http://www.w3.org/2000/svg" xmlns:xlink="http://www.w3.org/1999/xlink" x="0px" y="0px"
	 viewBox="0 0 50 50" style="enable-background:new 0 0 50 50;" xml:space="preserve">
<style type="text/css">
	.st0{fill:#E8C10D;}
</style>
<g>
	<path class="st0" d="M41.9,26.2c-0.2-0.3-0.4-0.5-0.6-0.8c-0.1,8-6.6,14.6-14.7,14.6s-14.7-6.6-14.7-14.7s6.6-14.7,14.7-14.7
		c7,0,12.8,4.9,14.3,11.4l1.3-9.9v-0.2c-3.8-4.4-9.4-7.2-15.7-7.2c-4.9,0-9.4,1.7-12.9,4.6v0.2v0.2v4.2v0.2c0,2.8-1.5,5.4-3.7,6.8
		v16.4v0.3c3.8,5.1,9.8,8.5,16.7,8.5c7.2,0,13.5-3.7,17.2-9.3v-0.3v-8.8C43.1,27.3,42.4,26.8,41.9,26.2z"/>
	<path class="st0" d="M26.6,13c-6.7,0-12.2,5.5-12.2,12.2s5.5,12.2,12.2,12.2S38.8,32,38.8,25.2S33.3,13,26.6,13z"/>
	<path class="st0" d="M49.9,2.4c0-1.1-0.9-1.9-1.9-1.9s-1.8,0.7-1.9,1.7l-2.8,20.9c-0.1,0.6,0.1,1.1,0.5,1.5s0.9,0.7,1.4,0.7h1.1
		v22.4c0,1,0.8,1.8,1.8,1.8s1.8-0.8,1.8-1.8L49.9,2.4z"/>
	<path class="st0" d="M11.2,2.8c0-0.7-0.6-1.2-1.2-1.2c-0.7,0-1.2,0.6-1.2,1.2v6.9h-2V2.8c0-0.7-0.6-1.2-1.2-1.2S4.3,2.1,4.3,2.8
		v6.9H2.5V2.8c0-0.7-0.6-1.2-1.2-1.2S0,2.1,0,2.8v11.3c0,2.4,1.6,4.5,3.7,5.3v28.3c0,1,0.8,1.8,1.8,1.8s1.8-0.8,1.8-1.8V19.4
		c2.2-0.8,3.7-2.8,3.7-5.3V2.8H11.2z"/>
</g>
</svg>
