<svg fill="white" id="Capa_1" enable-background="new 0 0 512 512" height="512" viewBox="0 0 512 512" width="512" xmlns="http://www.w3.org/2000/svg"><path d="m187.701 172c-.009-.445-.034-.886-.034-1.333 0-37.679 30.654-68.334 68.333-68.334s68.333 30.654 68.333 68.334c0 .447-.025.888-.034 1.333h87.925c.004-.444.017-.888.017-1.333 0-10.554-1.054-21.037-3.139-31.294l19.424-11.214-49.449-85.649-19.454 11.231c-15.801-14.018-34.216-24.664-54.174-31.316v-22.425h-98.898v22.425c-19.958 6.653-38.373 17.298-54.174 31.316l-19.454-11.231-49.449 85.648 19.424 11.214c-2.085 10.257-3.139 20.74-3.139 31.294 0 .445.013.889.017 1.333h87.925z"/><path d="m256 132.333c-21.137 0-38.333 17.196-38.333 38.334 0 .447.018.89.034 1.333h76.598c.015-.443.034-.886.034-1.333 0-21.137-17.196-38.334-38.333-38.334z"/><path d="m452.333 308.65v-106.567h-96v199.319c9.32-4.273 19.67-6.675 30.576-6.675 38.973 0 70.952 30.438 73.459 68.788h29.723v-144.198z"/><path d="m326.333 426.565v-223.898-.334-.333h-304.424v92.333h165.758v-47.001l82.666 62.001-82.666 62.001v-47.001h-165.758v139.182h29.723c2.507-38.35 34.486-68.788 73.459-68.788s70.952 30.438 73.459 68.788h114.9c.893-13.662 5.522-26.315 12.883-36.95z"/><ellipse cx="125.091" cy="468.364" rx="43.636" ry="43.636" transform="matrix(.472 -.882 .882 .472 -346.879 357.652)"/><ellipse cx="386.909" cy="468.364" rx="43.636" ry="43.636" transform="matrix(.984 -.178 .178 .984 -77.359 76.55)"/></svg>