<?xml version="1.0" encoding="utf-8"?>
<!-- Generator: Adobe Illustrator 19.2.0, SVG Export Plug-In . SVG Version: 6.00 Build 0)  -->
<svg version="1.1" id="Layer_1" xmlns="http://www.w3.org/2000/svg" xmlns:xlink="http://www.w3.org/1999/xlink" x="0px" y="0px"
	 viewBox="0 0 50 50" style="enable-background:new 0 0 50 50;" xml:space="preserve">
<style type="text/css">
	.st0{fill:#FFFFFF;}
</style>
<g>
	<path class="st0" d="M18.3,16.8c0,0,0-0.1,0-0.1c0-3.7,3-6.7,6.7-6.7s6.7,3,6.7,6.7c0,0,0,0.1,0,0.1h8.6c0,0,0-0.1,0-0.1
		c0-1-0.1-2.1-0.3-3.1l1.9-1.1L37,4.1l-1.9,1.1c-1.5-1.4-3.3-2.4-5.3-3.1V0h-9.7v2.2c-1.9,0.6-3.7,1.7-5.3,3.1L13,4.1l-4.8,8.4
		l1.9,1.1c-0.2,1-0.3,2-0.3,3.1c0,0,0,0.1,0,0.1L18.3,16.8L18.3,16.8z"/>
	<path class="st0" d="M25,12.9c-2.1,0-3.7,1.7-3.7,3.7c0,0,0,0.1,0,0.1h7.5c0,0,0-0.1,0-0.1C28.7,14.6,27.1,12.9,25,12.9L25,12.9z"
		/>
	<path class="st0" d="M44.2,30.1V19.7h-9.4v19.5c0.9-0.4,1.9-0.7,3-0.7c3.8,0,6.9,3,7.2,6.7h2.9V31.2L44.2,30.1z"/>
	<path class="st0" d="M31.9,41.6V19.8v0v0H2.1v9h16.2v-4.6l8.1,6.1l-8.1,6.1v-4.6H2.1v13.6H5c0.2-3.7,3.4-6.7,7.2-6.7s6.9,3,7.2,6.7
		h11.2C30.7,43.9,31.1,42.7,31.9,41.6z"/>
	<ellipse transform="matrix(0.4718 -0.8817 0.8817 0.4718 -33.8509 34.9394)" class="st0" cx="12.2" cy="45.7" rx="4.3" ry="4.3"/>
	<ellipse transform="matrix(0.984 -0.178 0.178 0.984 -7.5388 7.4523)" class="st0" cx="37.8" cy="45.7" rx="4.3" ry="4.3"/>
</g>
</svg>
